<?xml version="1.0" standalone="no"?>
<!DOCTYPE svg PUBLIC "-//W3C//DTD SVG 1.1//EN" "http://www.w3.org/Graphics/SVG/1.1/DTD/svg11.dtd" >
<svg xmlns="http://www.w3.org/2000/svg" xmlns:xlink="http://www.w3.org/1999/xlink" version="1.1">
<metadata></metadata>
<defs>
<font id="arboria-bookuploaded_file" horiz-adv-x="1163" >
<font-face units-per-em="2048" ascent="1642" descent="-406" />
<missing-glyph horiz-adv-x="499" />
<glyph unicode="&#xfb01;" horiz-adv-x="1052" d="M-18 864v133h161v66q0 178 86 254t197 76q74 0 136.5 -20.5t88.5 -41.5l25 -22l-72 -107q-82 55 -160 55q-143 0 -143 -198v-62h315v-133h-317v-864h-156v864h-161zM739 1266q0 43 30 73.5t73 30.5t72.5 -30.5t29.5 -73.5q0 -41 -29.5 -72t-72.5 -31t-73 31t-30 72z M762 0v997h156v-997h-156z" />
<glyph unicode="&#xfb02;" horiz-adv-x="1052" d="M-18 864v133h161v66q0 178 86 254t197 76q74 0 136.5 -20.5t88.5 -41.5l25 -22l-72 -107q-82 55 -160 55q-143 0 -143 -198v-62h315v-133h-317v-864h-156v864h-161zM762 0v1348h156v-1348h-156z" />
<glyph horiz-adv-x="0" />
<glyph unicode="&#xd;" horiz-adv-x="681" />
<glyph unicode=" "  horiz-adv-x="499" />
<glyph unicode="&#x09;" horiz-adv-x="499" />
<glyph unicode="&#xa0;" horiz-adv-x="499" />
<glyph unicode="!" horiz-adv-x="462" d="M119 92q0 47 32.5 80t80 33t80 -33t32.5 -80t-32.5 -79.5t-80 -32.5t-80 32.5t-32.5 79.5zM143 1327h174l-18 -979h-137z" />
<glyph unicode="&#x22;" horiz-adv-x="720" d="M156 860v467h135v-467h-135zM430 860v467h135v-467h-135z" />
<glyph unicode="#" d="M102 371l29 118h160l94 383h-164l29 119h164l82 336h125l-82 -336h241l82 336h123l-82 -336h158l-29 -119h-155l-93 -383h158l-29 -118h-157l-90 -371h-123l90 371h-242l-90 -371h-125l88 371h-162zM420 489h239l95 383h-242z" />
<glyph unicode="$" d="M92 195l72 118q160 -174 411 -174q137 0 233.5 67.5t96.5 174.5q0 57 -26.5 98t-80 67.5t-99.5 40t-115 27.5q-72 14 -122 29.5t-110.5 44.5t-98.5 63.5t-63.5 91t-25.5 128.5q0 152 102.5 243t245.5 109v238h137v-238q182 -12 342 -154l-73 -118q-160 133 -334 133 q-98 0 -178 -57.5t-80 -151.5q0 -90 71.5 -138.5t196.5 -72.5q104 -20 180 -46t147.5 -69t109.5 -110.5t38 -157.5q0 -166 -120 -265.5t-300 -115.5v-264h-137v260q-260 19 -420 199z" />
<glyph unicode="%" horiz-adv-x="1744" d="M102 942q0 178 87 292t223 114q133 0 220 -114t87 -292t-87 -291.5t-220 -113.5q-135 0 -222.5 113.5t-87.5 291.5zM227 942q0 -127 50.5 -208t134.5 -81q80 0 131 82t51 207t-51 207t-131 82q-84 0 -134.5 -81t-50.5 -208zM426 20l815 1358l90 -51l-815 -1358zM1026 385 q0 178 86 292t221 114t222 -114t87 -292t-87 -291.5t-222 -113.5q-133 0 -220 113.5t-87 291.5zM1151 385q0 -125 50 -206t132 -81t133.5 81t51.5 206t-51.5 207t-133.5 82t-132 -81t-50 -208z" />
<glyph unicode="&#x26;" horiz-adv-x="1179" d="M66 375q0 109 63.5 207t187.5 159q-98 145 -98 274.5t95.5 231t267.5 101.5q246 0 350 -244l-135 -78q-31 84 -92.5 130t-122.5 46q-92 0 -144.5 -56t-52.5 -130q0 -145 231 -393l269 -287q63 84 63 207h154q0 -94 -31 -183.5t-72 -136.5l140 -147l-105 -101l-135 142 q-164 -137 -383 -137q-184 0 -317 101t-133 294zM229 383q0 -115 88.5 -184.5t210.5 -69.5q145 0 260 94l-380 404q-88 -39 -133.5 -104.5t-45.5 -139.5z" />
<glyph unicode="'" horiz-adv-x="446" d="M156 860v467h135v-467h-135z" />
<glyph unicode="(" horiz-adv-x="618" d="M119 583.5q0 483.5 336 811.5l94 -103q-268 -295 -268 -708.5t268 -708.5l-94 -102q-336 327 -336 810.5z" />
<glyph unicode=")" horiz-adv-x="618" d="M70 -125q268 291 268 708.5t-268 708.5l94 103q336 -328 336 -811.5t-336 -810.5z" />
<glyph unicode="*" horiz-adv-x="847" d="M80 846l250 131l-250 131l57 100l238 -149l-10 280h118l-10 -280l238 149l57 -100l-250 -131l250 -131l-57 -101l-238 150l10 -281h-118l10 279l-238 -148z" />
<glyph unicode="+" d="M125 475v133h383v385h143v-385h387v-133h-387v-381h-143v381h-383z" />
<glyph unicode="," horiz-adv-x="432" d="M76 -281l100 469h164l-143 -469h-121z" />
<glyph unicode="-" horiz-adv-x="899" d="M61 420v135h777v-135h-777z" />
<glyph unicode="." horiz-adv-x="432" d="M102 92q0 47 33 80t80 33t80 -33t33 -80t-33 -79.5t-80 -32.5t-80 32.5t-33 79.5z" />
<glyph unicode="/" horiz-adv-x="1013" d="M31 -39l876 1458h154l-877 -1458h-153z" />
<glyph unicode="0" d="M82 664q0 299 140 491.5t359.5 192.5t359.5 -192.5t140 -491.5t-140 -491.5t-359.5 -192.5t-359.5 192.5t-140 491.5zM250 663.5q0 -237.5 91 -388t240.5 -150.5t240.5 150.5t91 388t-91 388t-240.5 150.5t-240.5 -150.5t-91 -388z" />
<glyph unicode="1" d="M197 1026l372 301h142v-1182h303v-145h-781v145h318v967l-277 -201z" />
<glyph unicode="2" d="M123 0v113q371 305 542 499.5t171 335.5q0 109 -77 180.5t-198 71.5q-166 0 -338 -170l-90 107q182 211 436 211q197 0 316 -113t119 -274q0 -133 -103.5 -292t-237 -283t-294.5 -241h675v-145h-921z" />
<glyph unicode="3" d="M109 139l88 117q113 -133 331 -133q156 0 251 85t95 218q0 117 -91 193.5t-230 76.5q-106 0 -193 -53l-63 107l459 432h-604v145h829v-141l-379 -361q195 -6 318.5 -114.5t123.5 -286.5q0 -205 -142 -324.5t-365 -119.5q-285 -1 -428 159z" />
<glyph unicode="4" d="M102 283v120l551 932l135 -78l-495 -831h438v326h160v-326h172v-143h-172v-283h-160v283h-629z" />
<glyph unicode="5" d="M141 117l66 129q158 -123 340 -123q150 0 237.5 87t87.5 204q0 129 -97 210t-240 81q-150 0 -283 -93l-78 62v653h801v-145h-643v-394q123 53 237 54q203 0 338 -117t135 -307q0 -186 -134 -312t-359 -126q-246 0 -408 137z" />
<glyph unicode="6" d="M100 444q0 180 125 334l467 570l125 -95l-305 -362q33 14 86 14q195 0 329 -131t134 -323q0 -199 -135 -335t-346 -136q-213 0 -346.5 133.5t-133.5 330.5zM268 449q0 -137 88 -231.5t223.5 -94.5t224.5 94t89 232q0 131 -90 225t-223.5 94t-222.5 -93t-89 -226z" />
<glyph unicode="7" d="M152 1182v145h940v-119l-621 -1208h-174l618 1182h-763z" />
<glyph unicode="8" d="M94 397q0 123 67.5 216.5t182.5 140.5q-141 92 -141 264q0 143 105.5 236.5t273.5 93.5t273.5 -93.5t105.5 -236.5q0 -170 -144 -264q117 -49 184.5 -142.5t67.5 -214.5q0 -184 -136 -300.5t-351 -116.5q-217 0 -352.5 116.5t-135.5 300.5zM264 401q0 -117 88 -197.5 t229.5 -80.5t229.5 79t88 199q0 119 -89 200t-228 81q-141 0 -229.5 -81t-88.5 -200zM356 1010q0 -84 63.5 -142.5t162 -58.5t162 58.5t63.5 142.5q0 86 -62.5 143t-163 57t-163 -57t-62.5 -143z" />
<glyph unicode="9" d="M100 877q0 199 135.5 335t346.5 136q213 0 346 -134.5t133 -330.5q0 -180 -125 -334l-467 -569l-125 94l305 362q-18 -14 -86 -14q-195 0 -329 131t-134 324zM268 881q0 -133 90.5 -227.5t223.5 -94.5t222 94.5t89 227.5q0 135 -88 229t-223.5 94t-224.5 -94t-89 -229z " />
<glyph unicode=":" horiz-adv-x="432" d="M102 92q0 47 33 80t80 33t80 -33t33 -80t-33 -79.5t-80 -32.5t-80 32.5t-33 79.5zM102 838q0 47 33 80.5t80 33.5t80 -33.5t33 -80.5t-33 -80t-80 -33t-80 33t-33 80z" />
<glyph unicode=";" horiz-adv-x="450" d="M76 -281l100 469h164l-143 -469h-121zM117 838q0 47 32.5 80.5t79.5 33.5t81 -33.5t34 -80.5t-34 -80t-81 -33q-45 0 -78.5 33t-33.5 80z" />
<glyph unicode="&#x3c;" horiz-adv-x="1114" d="M143 489v107l877 381v-152l-674 -282l674 -285v-149z" />
<glyph unicode="=" d="M125 342v133h913v-133h-913zM125 649v133h913v-133h-913z" />
<glyph unicode="&#x3e;" d="M143 109v149l674 285l-674 282v152l877 -381v-107z" />
<glyph unicode="?" horiz-adv-x="976" d="M39 1081q47 125 154.5 196t252.5 71q186 0 305 -122t119 -296q0 -158 -99 -271.5t-251 -134.5l-18 -178h-140l-16 283q180 0 270.5 90t90.5 213q0 106 -78 184t-193 78q-90 0 -159.5 -48t-104.5 -130zM322 92q0 47 32.5 80t79.5 33q45 0 79 -33t34 -80t-33 -79.5 t-80 -32.5t-79.5 32.5t-32.5 79.5z" />
<glyph unicode="@" horiz-adv-x="1884" d="M143 500q0 334 237.5 570.5t573.5 236.5q326 0 556.5 -212t230.5 -524q0 -203 -90 -328.5t-228 -125.5q-164 0 -211 143q-98 -164 -313 -164q-145 0 -256 119t-111 283t110 282.5t257 118.5q186 0 293 -141v121h125v-473q0 -70 26.5 -121.5t88.5 -51.5q80 0 134 93.5 t54 244.5q0 266 -189.5 445.5t-476.5 179.5q-283 0 -483.5 -204t-200.5 -492q0 -291 200 -484.5t482 -193.5q184 0 328 72l49 -99q-158 -82 -379 -82q-340 0 -573.5 223.5t-233.5 563.5zM662 497.5q0 -116.5 78.5 -200.5t191 -84t186.5 81t74 204q0 127 -72.5 204.5 t-187.5 77.5t-192.5 -83t-77.5 -199.5z" />
<glyph unicode="A" horiz-adv-x="1427" d="M16 0l627 1327h141l627 -1327h-170l-123 258h-811l-123 -258h-168zM369 393h688l-223 467l-121 279q-59 -158 -119 -281z" />
<glyph unicode="B" horiz-adv-x="1366" d="M156 0v1327h616q164 0 267.5 -86t103.5 -235q0 -80 -45 -150t-105 -92q119 -20 200 -120.5t81 -237.5q0 -184 -137.5 -295t-364.5 -111h-616zM319 145h443q156 0 248 71t92 187q0 121 -79 194t-224 73h-480v-525zM319 815h461q88 0 139.5 50t51.5 130q0 82 -55.5 134.5 t-155.5 52.5h-441v-367z" />
<glyph unicode="C" horiz-adv-x="1314" d="M94 663.5q0 284.5 200 484.5t490 200q266 0 461 -172l-100 -113q-152 135 -350 135q-225 0 -377 -155.5t-152 -378.5q0 -221 150.5 -378t369.5 -157q229 0 388 164l104 -113q-200 -200 -489 -200h-3q-293 0 -492.5 199.5t-199.5 484z" />
<glyph unicode="D" horiz-adv-x="1447" d="M156 0v1327h503q311 0 503 -192.5t192 -471t-191.5 -471t-503.5 -192.5h-503zM319 145h330q238 0 385.5 146.5t147.5 372t-147.5 372t-385.5 146.5h-330v-1037z" />
<glyph unicode="E" horiz-adv-x="1263" d="M156 0v1327h1005v-145h-842v-402h787v-143h-787v-492h871v-145h-1034z" />
<glyph unicode="F" horiz-adv-x="1140" d="M156 0v1327h952v-145h-789v-402h660v-143h-660v-637h-163z" />
<glyph unicode="G" horiz-adv-x="1495" d="M94 663.5q0 284.5 201 484.5t491 200q262 0 463 -174l-102 -115q-150 139 -361 139q-219 0 -369.5 -155.5t-150.5 -379t150.5 -379t369.5 -155.5q125 0 233.5 56.5t180.5 154.5v274h-291v142h451v-477q-92 -139 -243.5 -219t-330.5 -80q-293 0 -492.5 199.5t-199.5 484z " />
<glyph unicode="H" horiz-adv-x="1406" d="M156 0v1327h163v-547h768v547h164v-1327h-164v635h-768v-635h-163z" />
<glyph unicode="I" horiz-adv-x="475" d="M156 0v1327h163v-1327h-163z" />
<glyph unicode="J" horiz-adv-x="1112" d="M53 227l119 90q102 -188 297 -188q156 0 250 100.5t94 311.5v786h164v-797q0 -279 -141.5 -414.5t-364.5 -135.5q-135 0 -247 63t-171 184z" />
<glyph unicode="K" horiz-adv-x="1318" d="M156 0v1327h163v-850q74 98 127 160l611 690h198l-528 -612l571 -715h-196l-481 600l-302 -338v-262h-163z" />
<glyph unicode="L" horiz-adv-x="1230" d="M156 0v1327h163v-1182h838v-145h-1001z" />
<glyph unicode="M" horiz-adv-x="1679" d="M156 0v1327h145l158 -225l381 -529l379 529l157 225h148v-1327h-164v1047q-55 -88 -131 -195l-389 -547l-394 549l-127 193v-1047h-163z" />
<glyph unicode="N" horiz-adv-x="1441" d="M156 0v1327h159l635 -823q39 -49 82 -112.5t66 -100.5l24 -39v1075h164v-1327h-164l-614 797q-45 57 -92 124.5t-72 106.5l-25 39v-1067h-163z" />
<glyph unicode="O" horiz-adv-x="1572" d="M94 663.5q0 284.5 201 484.5t491.5 200t491.5 -200t201 -484.5t-200 -484t-492.5 -199.5t-492.5 199.5t-200 484zM266 664q0 -221 150.5 -378t370 -157t370 156.5t150.5 378.5q0 223 -150.5 378.5t-370 155.5t-370 -155.5t-150.5 -378.5z" />
<glyph unicode="P" horiz-adv-x="1361" d="M156 0v1327h544q264 0 416 -141.5t152 -356.5t-151.5 -356t-418.5 -141h-379v-332h-163zM319 477h396q170 0 275.5 101.5t105.5 251t-105.5 251t-273.5 101.5h-398v-705z" />
<glyph unicode="Q" horiz-adv-x="1570" d="M94 663.5q0 284.5 201 484.5t491.5 200t491.5 -200t201 -484q0 -248 -158 -439l129 -127l-107 -106l-129 129q-186 -141 -428 -141q-293 0 -492.5 199.5t-199.5 484zM266 664q0 -221 150.5 -378t369.5 -157q178 0 314 107l-178 180l104 104l178 -178q102 145 103 322 q0 223 -150.5 378.5t-370 155.5t-370 -155.5t-150.5 -378.5z" />
<glyph unicode="R" horiz-adv-x="1361" d="M156 0v1327h542q270 0 420 -141.5t150 -356.5q0 -147 -80 -268t-223 -176l313 -385h-207l-268 338q-51 -6 -242 -6h-242v-332h-163zM319 477h396q170 0 275.5 101.5t105.5 251t-105.5 251t-273.5 101.5h-398v-705z" />
<glyph unicode="S" horiz-adv-x="1226" d="M94 182l74 125q174 -178 442 -178q135 0 243 62.5t108 179.5q0 43 -20.5 78.5t-47.5 58t-77 44t-87 33t-98 25.5q-90 23 -142.5 38.5t-126 46t-113.5 66.5t-69.5 94t-29.5 132q0 166 138 263.5t324 97.5q252 0 451 -150l-76 -127q-166 127 -375 127q-104 0 -197 -53 t-93 -156q0 -41 19 -73.5t45 -54t75 -41t87 -30t105 -26.5q84 -20 143.5 -38.5t128 -51.5t109.5 -72t70 -98.5t29 -132.5q0 -188 -156 -289.5t-367 -101.5h-3q-315 0 -513 202z" />
<glyph unicode="T" horiz-adv-x="1228" d="M41 1182v145h1147v-145h-492v-1182h-164v1182h-491z" />
<glyph unicode="U" horiz-adv-x="1368" d="M135 512v815h164v-815q0 -168 111.5 -275.5t273.5 -107.5t273.5 107.5t111.5 275.5v815h164v-815q0 -236 -160 -384t-389 -148q-231 0 -390 148t-159 384z" />
<glyph unicode="V" horiz-adv-x="1368" d="M20 1327h170l396 -883l98 -247q59 166 96 247l398 883h170l-592 -1333h-142z" />
<glyph unicode="W" horiz-adv-x="1910" d="M20 1327h166l308 -924l53 -180q23 100 47 180l276 924h170l277 -924l47 -180q27 100 53 180l309 924h164l-444 -1333h-162l-280 913q-14 43 -25.5 95.5t-15.5 82.5l-7 31q-18 -111 -49 -209l-280 -913h-162z" />
<glyph unicode="X" horiz-adv-x="1249" d="M20 0l510 664l-505 663h192l289 -366q25 -31 54.5 -74t45.5 -72l19 -29q72 111 123 177l286 364h191l-506 -663l510 -664h-193l-288 371l-123 172q-74 -111 -123 -174l-289 -369h-193z" />
<glyph unicode="Y" horiz-adv-x="1275" d="M20 1327h193l268 -340q33 -41 73 -96t62 -90l23 -35q90 131 160 221l264 340h192l-534 -696v-631h-164v629z" />
<glyph unicode="Z" horiz-adv-x="1232" d="M74 0v135l764 932q27 33 53.5 61.5t38.5 40.5l14 13h-833v145h1028v-135l-754 -920l-111 -127h885v-145h-1085z" />
<glyph unicode="[" horiz-adv-x="573" d="M119 -203v1624h391v-118h-231v-1387h231v-119h-391z" />
<glyph unicode="\" horiz-adv-x="1165" d="M-12 1419h157l1018 -1458h-157z" />
<glyph unicode="]" horiz-adv-x="573" d="M63 -84h234v1387h-234v118h392v-1624h-392v119z" />
<glyph unicode="^" horiz-adv-x="1126" d="M123 662l393 665h94l394 -665h-152l-289 471l-289 -471h-151z" />
<glyph unicode="_" horiz-adv-x="983" d="M-6 -137h995v-103h-995v103z" />
<glyph unicode="`" horiz-adv-x="696" d="M188 1430h174l166 -273h-147z" />
<glyph unicode="a" horiz-adv-x="1220" d="M84 498q0 217 138 368.5t343 151.5q240 0 365 -193v172h155v-997h-155v170q-123 -190 -365 -190q-205 0 -343 151.5t-138 366.5zM244 497.5q0 -155.5 99 -261t247 -105.5q143 0 241.5 104.5t98.5 262.5q0 156 -97.5 262t-242.5 106q-147 0 -246.5 -106.5t-99.5 -262z" />
<glyph unicode="b" horiz-adv-x="1214" d="M135 0v1348h156v-523q57 90 151.5 141.5t208.5 51.5q205 0 342 -151.5t137 -368.5q0 -215 -137 -366.5t-342 -151.5q-115 0 -209 50t-151 140v-170h-156zM291 497.5q0 -155.5 97 -261t242.5 -105.5t243 105.5t97.5 261t-97.5 262t-243 106.5t-242.5 -106.5t-97 -262z" />
<glyph unicode="c" horiz-adv-x="1038" d="M84 498q0 215 153.5 367.5t370.5 152.5q205 0 359 -137l-101 -111q-102 96 -255.5 96t-260 -106.5t-106.5 -261.5q0 -154 106.5 -260.5t263.5 -106.5q174 0 283 115l92 -115q-155 -151 -378 -151h-3q-217 0 -370.5 151.5t-153.5 366.5z" />
<glyph unicode="d" horiz-adv-x="1214" d="M84 498q0 217 138 368.5t343 151.5q113 0 207 -51.5t152 -141.5v523h155v-1348h-155v170q-57 -90 -150.5 -140t-208.5 -50q-205 0 -343 151.5t-138 366.5zM244 497.5q0 -155.5 98 -261t244 -105.5q143 0 240.5 103.5t97.5 263.5q0 156 -97.5 262t-240.5 106 q-145 0 -243.5 -106.5t-98.5 -262z" />
<glyph unicode="e" horiz-adv-x="1146" d="M84 498q0 215 145.5 367.5t354.5 152.5q197 0 338 -151.5t141 -360.5l-4 -66h-811q18 -143 120.5 -231t241.5 -88q180 0 308 115l73 -113q-170 -143 -381 -143q-219 0 -372.5 145.5t-153.5 372.5zM246 563h659q-14 137 -107 226.5t-220 89.5q-125 0 -219.5 -90.5 t-112.5 -225.5z" />
<glyph unicode="f" horiz-adv-x="626" d="M-18 864v133h161v66q0 178 86 254t197 76q74 0 136.5 -20.5t88.5 -41.5l25 -22l-72 -107q-82 55 -160 55q-143 0 -143 -198v-62h315v-133h-317v-864h-156v864h-161z" />
<glyph unicode="g" horiz-adv-x="1214" d="M84 537q0 207 137 344t344 137q240 0 359 -193v172h155v-774q0 -125 -40 -223t-97 -152.5t-131 -90.5t-131 -47t-107 -11q-238 0 -395 154l78 102q125 -125 313 -125q23 0 55.5 5t89 27.5t100.5 58.5t77 108.5t33 167.5v43q-57 -92 -150.5 -141.5t-208.5 -49.5 q-207 0 -344 139.5t-137 348.5zM244 526q0 -143 95 -234t240.5 -91t239.5 91t94 234q0 150 -94 245t-239.5 95t-240.5 -95t-95 -245z" />
<glyph unicode="h" horiz-adv-x="1112" d="M135 0v1348h156v-510q111 180 340 180q180 0 273 -108.5t93 -301.5v-608h-155v584q0 139 -59.5 210.5t-196.5 71.5q-133 0 -214 -89t-81 -214v-563h-156z" />
<glyph unicode="i" horiz-adv-x="425" d="M113 1266q0 43 29.5 73.5t72.5 30.5t72.5 -30.5t29.5 -73.5q0 -41 -29.5 -72t-72.5 -31t-72.5 31t-29.5 72zM135 0v997h156v-997h-156z" />
<glyph unicode="j" horiz-adv-x="425" d="M-33 -221q168 100 168 377v841h156v-825q-1 -381 -271 -516zM113 1266q0 43 29.5 73.5t72.5 30.5t72.5 -30.5t29.5 -73.5q0 -41 -29.5 -72t-72.5 -31t-72.5 31t-29.5 72z" />
<glyph unicode="k" horiz-adv-x="1054" d="M135 0v1348h156v-899l483 548h201l-397 -442l466 -555h-200l-365 446l-188 -215v-231h-156z" />
<glyph unicode="l" horiz-adv-x="425" d="M135 0v1348h156v-1348h-156z" />
<glyph unicode="m" horiz-adv-x="1753" d="M135 0v997h156v-159q49 86 133 133t182 47q242 0 322 -199q51 94 146 146.5t198 52.5q182 0 274 -105.5t92 -302.5v-610h-155v584q0 135 -54.5 208.5t-189.5 73.5q-119 0 -196.5 -78.5t-77.5 -205.5v-582h-156v584q0 135 -54.5 208.5t-189.5 73.5q-117 0 -195.5 -86 t-78.5 -213v-567h-156z" />
<glyph unicode="n" horiz-adv-x="1112" d="M135 0v997h156v-159q113 180 340 180q182 0 274 -107.5t92 -302.5v-608h-155v584q0 139 -58.5 210.5t-193.5 71.5q-123 0 -211 -87t-88 -220v-559h-156z" />
<glyph unicode="o" horiz-adv-x="1216" d="M84 498q0 215 153.5 367.5t370.5 152.5t371 -152.5t154 -367.5q0 -213 -154 -365.5t-371 -152.5t-370.5 152.5t-153.5 365.5zM244 497.5q0 -151.5 106.5 -259t258 -107.5t258 107.5t106.5 259t-106.5 260t-258 108.5t-258 -108.5t-106.5 -260z" />
<glyph unicode="p" horiz-adv-x="1214" d="M135 -281v1278h156v-172q57 90 151.5 141.5t208.5 51.5q205 0 342 -151.5t137 -368.5q0 -215 -137 -366.5t-342 -151.5q-111 0 -206 52t-154 138v-451h-156zM291 497.5q0 -155.5 97 -261t242.5 -105.5t243 105.5t97.5 261t-97.5 262t-243 106.5t-242.5 -106.5t-97 -262z " />
<glyph unicode="q" horiz-adv-x="1214" d="M84 498q0 217 138 368.5t343 151.5q113 0 207 -51.5t152 -141.5v172h155v-1278h-155v451q-57 -90 -150.5 -140t-208.5 -50q-205 0 -343 151.5t-138 366.5zM244 497.5q0 -155.5 98 -261t244 -105.5q143 0 240.5 105.5t97.5 261.5q0 158 -97.5 263t-240.5 105 q-145 0 -243.5 -106.5t-98.5 -262z" />
<glyph unicode="r" horiz-adv-x="716" d="M135 0v997h156v-211q45 102 143 167t242 65v-172q-168 0 -276.5 -97.5t-108.5 -308.5v-440h-156z" />
<glyph unicode="s" horiz-adv-x="966" d="M84 135l76 125q125 -129 313 -129q106 0 178 42t72 110q0 35 -19.5 61.5t-59.5 45t-73.5 28.5t-91.5 24q-84 20 -134 38t-107.5 50.5t-84 83t-26.5 119.5q0 127 110.5 206t247.5 79q182 0 344 -111l-75 -121q-117 80 -267 80q-80 0 -140 -37.5t-60 -93.5q0 -33 16 -57.5 t56 -42t68 -24.5t87 -21q82 -18 136.5 -38t113.5 -53.5t89 -87t30 -124.5q0 -150 -123 -228.5t-285 -78.5h-3q-242 0 -388 155z" />
<glyph unicode="t" horiz-adv-x="735" d="M27 864v133h149v222l156 24v-246h342v-133h-342v-536q0 -209 141 -209q41 0 82 14t61 27l21 14l51 -121q-108 -73 -226 -73h-3q-131 0 -207 78.5t-76 240.5v565h-149z" />
<glyph unicode="u" horiz-adv-x="1099" d="M115 381v616h155v-583q0 -283 256 -283q123 0 203 84t80 227v555h156v-997h-156v154q-106 -174 -322 -174q-182 0 -277 111.5t-95 289.5z" />
<glyph unicode="v" horiz-adv-x="1044" d="M10 997h162l279 -635l71 -198q33 111 72 196l278 637h162l-440 -1003h-143z" />
<glyph unicode="w" horiz-adv-x="1458" d="M10 997h154l225 -661l35 -146q12 80 31 146l196 661h156l199 -661l30 -146q12 80 35 146l223 661h154l-340 -1003h-141l-205 665l-33 146q-12 -84 -31 -146l-204 -665h-142z" />
<glyph unicode="x" horiz-adv-x="966" d="M14 0l373 504l-373 493h179l198 -264l92 -129l95 131l196 262h178l-372 -495l372 -502h-178l-194 258l-97 141q-59 -90 -96 -141l-194 -258h-179z" />
<glyph unicode="y" horiz-adv-x="1071" d="M23 997h165l295 -624l68 -156l67 162l269 618h162l-467 -1046q-37 -84 -82 -138.5t-97.5 -77t-91.5 -29.5t-94 -7v147q88 0 140.5 36t99.5 138l20 46z" />
<glyph unicode="z" horiz-adv-x="927" d="M53 0v123l482 588q25 33 57.5 68.5t52.5 56.5l21 20h-592v141h782v-123l-479 -579l-135 -154h632v-141h-821z" />
<glyph unicode="{" horiz-adv-x="790" d="M109 541v127h30q139 0 140 120v175q0 469 362 469h86v-132q-162 0 -226.5 -76.5t-64.5 -258.5v-162q0 -178 -141 -201q141 -37 141 -199v-159q0 -182 64.5 -259t226.5 -77v-131h-86q-362 0 -362 467v176q0 121 -140 121h-30z" />
<glyph unicode="|" horiz-adv-x="440" d="M154 -387v1898h129v-1898h-129z" />
<glyph unicode="}" horiz-adv-x="790" d="M63 -92q162 0 225.5 76.5t63.5 259.5v159q0 162 144 199q-80 12 -112 71.5t-32 129.5v162q0 182 -63.5 258.5t-225.5 76.5v132h87q362 0 362 -469v-175q0 -121 139 -120h31v-127h-31q-139 0 -139 -121v-176q0 -467 -362 -467h-87v131z" />
<glyph unicode="~" horiz-adv-x="1136" d="M154 432q0 102 54 175t171 73q74 0 188.5 -59.5t167.5 -59.5q41 0 65.5 30t24.5 68h156q0 -102 -54.5 -174.5t-170.5 -72.5q-84 0 -199 59t-158 59q-41 0 -65.5 -29.5t-24.5 -68.5h-155z" />
<glyph unicode="&#xa1;" horiz-adv-x="462" d="M119 903q0 47 32.5 81t80 34t80 -34t32.5 -81t-32.5 -79.5t-80 -32.5t-80 32.5t-32.5 79.5zM145 -348l19 979h137l18 -979h-174z" />
<glyph unicode="&#xa2;" d="M150 655q0 205 135 350.5t323 165.5v226h125v-228q166 -12 297 -131l-98 -110q-106 96 -256 96q-154 0 -260.5 -106.5t-106.5 -262.5q0 -154 105.5 -260t265.5 -106q80 0 157 31.5t126 82.5l90 -116q-133 -127 -320 -146v-229h-125v229q-188 25 -323 168.5t-135 345.5z " />
<glyph unicode="&#xa3;" d="M98 0v129h162v471h-151v121h151v223q0 190 122 297t304 107q195 0 324 -127l-92 -111q-109 94 -230 94q-113 0 -190.5 -71.5t-77.5 -182.5v-229h407v-121h-407v-457h645v-143h-967z" />
<glyph unicode="&#xa4;" d="M125 215l154 154q-74 96 -74 221t74 221l-154 158l80 80l155 -160q98 72 222 72q121 0 219 -72l157 160l80 -80l-155 -158q76 -98 75.5 -221t-75.5 -221l155 -156l-80 -80l-157 158q-98 -72 -219 -72q-123 0 -222 72l-155 -158zM352 590q0 -98 66.5 -167t163 -69t163 69 t66.5 167t-66.5 166.5t-163 68.5t-163 -68.5t-66.5 -166.5z" />
<glyph unicode="&#xa5;" d="M63 1327h185l256 -401l78 -144q41 90 75 144l256 401h187l-438 -676v-39h280v-110h-280v-137h280v-111h-280v-254h-160v254h-283v111h283v137h-281v110h281v39z" />
<glyph unicode="&#xa6;" horiz-adv-x="423" d="M147 -389v985h129v-985h-129zM147 786v861h129v-861h-129z" />
<glyph unicode="&#xa7;" horiz-adv-x="1062" d="M94 725q0 74 40 135.5t97 85.5q-70 51 -69 148q0 123 105.5 188.5t248.5 65.5q219 0 387 -103l-65 -121q-154 82 -320 82q-78 0 -137 -25.5t-59 -86.5q0 -33 23.5 -56.5t52 -36t102.5 -38.5l211 -76q137 -47 197.5 -123t60.5 -184q0 -72 -44 -133.5t-108 -81.5 q37 -18 61.5 -59.5t24.5 -90.5q0 -131 -114.5 -193.5t-268.5 -62.5q-119 0 -224.5 39t-164.5 92l74 121q131 -113 319 -113q80 0 148.5 27t68.5 92q0 43 -36.5 66.5t-141.5 60.5l-215 78q-254 90 -254 303zM250 733q0 -121 164 -182l174 -66q96 -35 117 -34q45 0 77.5 40 t32.5 93q0 111 -129 161l-274 105q-39 14 -56 14q-45 0 -75.5 -41t-30.5 -90z" />
<glyph unicode="&#xa8;" horiz-adv-x="696" d="M96 1260q0 39 27 65.5t65 26.5q37 0 64 -27t27 -65q0 -37 -27 -64t-64 -27q-39 0 -65.5 27t-26.5 64zM418 1260q0 39 27.5 65.5t66.5 26.5q37 0 63.5 -27t26.5 -65q0 -37 -26.5 -64t-63.5 -27q-39 0 -66.5 27t-27.5 64z" />
<glyph unicode="&#xa9;" horiz-adv-x="1531" d="M82 663.5q0 282.5 200.5 483.5t483.5 201t483.5 -201t200.5 -483.5t-200.5 -483t-483.5 -200.5t-483.5 200.5t-200.5 483zM164 663.5q0 -249.5 177 -429t425 -179.5q250 0 426 178.5t176 430t-176 430t-426 178.5q-248 0 -425 -179.5t-177 -429zM371 659q0 172 120.5 294 t290.5 122q164 0 289 -119l-63 -63q-100 90 -226 90q-129 0 -220 -94t-91 -229.5t92 -228.5t221 -93q139 0 250 121l64 -66q-131 -145 -316 -145q-170 0 -290.5 120.5t-120.5 290.5z" />
<glyph unicode="&#xaa;" horiz-adv-x="753" d="M59 870q0 119 102.5 173.5t248.5 54.5q59 0 114 -11q-16 143 -164 144q-51 0 -98 -14.5t-69 -28.5l-23 -14l-53 96q10 8 29.5 21.5t86 35t138.5 21.5q289 0 288 -326v-344h-127v72q-94 -86 -235 -86q-100 0 -169 55t-69 151zM188 877q0 -47 38 -72t93 -25q111 0 162 50.5 t51 93.5v61q-57 10 -122 10q-92 0 -157 -28.5t-65 -89.5z" />
<glyph unicode="&#xab;" horiz-adv-x="923" d="M68 457v80l348 342l80 -78l-287 -303l285 -305l-78 -78zM424 457v80l350 342l78 -78l-285 -303l285 -305l-78 -78z" />
<glyph unicode="&#xac;" d="M125 551v133h913l-2 -461h-143v328h-768z" />
<glyph unicode="&#xad;" horiz-adv-x="899" d="M61 420v135h777v-135h-777z" />
<glyph unicode="&#xae;" horiz-adv-x="1531" d="M82 663.5q0 282.5 200.5 483.5t483.5 201t483.5 -201t200.5 -483.5t-200.5 -483t-483.5 -200.5t-483.5 200.5t-200.5 483zM164 663.5q0 -249.5 177 -429t425 -179.5q250 0 426 178.5t176 430t-176 430t-426 178.5q-248 0 -425 -179.5t-177 -429zM473 258v807h344 q135 0 230.5 -96.5t95.5 -229.5q0 -188 -158 -284l150 -197h-123l-121 162q-33 -8 -74 -8h-248v-154h-96zM569 510h248q94 0 159.5 66.5t65.5 162.5q0 94 -65.5 162t-159.5 68h-248v-459z" />
<glyph unicode="&#xaf;" horiz-adv-x="696" d="M143 1167v121h410v-121h-410z" />
<glyph unicode="&#xb0;" horiz-adv-x="743" d="M82 1067q0 119 83 202t199.5 83t200.5 -83t84 -202q0 -115 -84 -199t-200.5 -84t-199.5 84t-83 199zM209 1067q0 -66 46 -114t109.5 -48t109.5 48t46 114t-46 114t-109.5 48t-109.5 -48t-46 -114z" />
<glyph unicode="&#xb1;" d="M125 61v134h913v-134h-913zM125 598v133h383v305h143v-305h387v-133h-387v-305h-143v305h-383z" />
<glyph unicode="&#xb2;" horiz-adv-x="792" d="M63 596v96q279 244 383.5 359.5t104.5 214.5q0 70 -47 114.5t-131 44.5q-131 0 -228 -114l-73 92q131 145 311 145q143 0 226 -76.5t83 -197.5q0 -133 -107.5 -261t-316.5 -294h445v-123h-650z" />
<glyph unicode="&#xb3;" horiz-adv-x="821" d="M61 696l70 95q88 -84 234 -84q109 0 168 60t59 140q0 76 -54.5 129.5t-158.5 53.5q-72 0 -137 -41l-52 79l314 287h-410v121h592v-106l-256 -242h8q125 0 211 -84t86 -203q0 -129 -99 -223t-267 -94q-197 -1 -308 112z" />
<glyph unicode="&#xb4;" horiz-adv-x="696" d="M166 1157l166 273h174l-193 -273h-147z" />
<glyph unicode="&#xb5;" horiz-adv-x="1122" d="M123 -281v1278h156v-563q0 -303 247 -303q121 0 207 89t86 274v503h158v-438q0 -352 135 -493l-100 -107q-113 109 -140 229q-102 -209 -344 -208q-166 0 -249 110v-371h-156z" />
<glyph unicode="&#xb6;" horiz-adv-x="1099" d="M102 926q0 166 126 283.5t302 117.5h404v-1327h-123v1208h-158v-1208h-123v526q-186 14 -307 118t-121 282z" />
<glyph unicode="&#xb7;" horiz-adv-x="333" d="M55 578q0 45 34 78.5t79 33.5t78 -32.5t33 -80t-32 -80t-79 -32.5t-80 33t-33 80z" />
<glyph unicode="&#xb8;" horiz-adv-x="696" d="M106 -379l46 74q78 -49 170 -49q66 0 104.5 31.5t38.5 72.5q0 35 -26.5 52.5t-63.5 17.5q-35 0 -70 -16.5t-51 -39.5l-88 33l125 209h100l-76 -131q41 18 84 19q74 0 124 -38t50 -102q0 -82 -71.5 -136t-179.5 -54q-128 0 -216 57z" />
<glyph unicode="&#xb9;" horiz-adv-x="655" d="M55 1292l305 244h103v-940h-133v760l-215 -158z" />
<glyph unicode="&#xba;" horiz-adv-x="808" d="M59 1005.5q0 141.5 100.5 242t244 100.5t245 -100.5t101.5 -242t-101.5 -241.5t-245 -100t-244 100t-100.5 241.5zM186 1005.5q0 -90.5 63.5 -154t154 -63.5t154 63.5t63.5 154t-63.5 154t-154 63.5t-154 -63.5t-63.5 -154z" />
<glyph unicode="&#xbb;" horiz-adv-x="923" d="M72 193l284 305l-284 303l78 78l350 -342v-80l-350 -342zM430 193l285 305l-285 303l78 78l348 -342v-80l-348 -342z" />
<glyph unicode="&#xbc;" horiz-adv-x="1832" d="M55 1087l305 244h103v-940h-133v760l-215 -158zM455 20l815 1358l90 -51l-815 -1358zM1026 199v96l387 659l113 -55l-344 -577h284v213h136v-213h110v-123h-110v-199h-136v199h-440z" />
<glyph unicode="&#xbd;" horiz-adv-x="1980" d="M55 1087l305 244h103v-940h-133v760l-215 -158zM455 20l815 1358l90 -51l-815 -1358zM1243 0v94q279 244 384.5 359.5t105.5 216.5q0 70 -47.5 113.5t-131.5 43.5q-131 0 -229 -112l-74 92q131 143 312 143q143 0 227 -75.5t84 -196.5q0 -70 -31 -137.5t-100.5 -144.5 t-131 -133t-175.5 -152q76 10 123 10h335v-121h-651z" />
<glyph unicode="&#xbe;" horiz-adv-x="1982" d="M61 492l70 94q88 -84 234 -84q109 0 168 60.5t59 139.5q0 76 -54.5 129.5t-158.5 53.5q-72 0 -137 -41l-52 80l314 286h-410v121h592v-106l-256 -242h8q125 0 211 -84t86 -203q0 -129 -99 -223t-267 -94q-197 0 -308 113zM629 20l815 1358l90 -51l-815 -1358zM1202 199 v96l387 659l113 -55l-344 -577h284v213h136v-213h110v-123h-110v-199h-136v199h-440z" />
<glyph unicode="&#xbf;" horiz-adv-x="976" d="M106 72q0 158 100.5 270.5t252.5 132.5l16 178h139l17 -282q-182 0 -271.5 -89t-89.5 -212q0 -106 80 -185.5t193 -79.5q88 0 158.5 49.5t103.5 129.5l133 -64q-47 -125 -154.5 -196.5t-251.5 -71.5q-188 0 -307 122t-119 298zM430 909q0 47 34 80t81 33t79.5 -33 t32.5 -80t-32.5 -80.5t-79.5 -33.5t-81 33.5t-34 80.5z" />
<glyph unicode="&#xc0;" horiz-adv-x="1427" d="M16 0l627 1327h141l627 -1327h-170l-123 258h-811l-123 -258h-168zM369 393h688l-223 467l-121 279q-59 -158 -119 -281zM446 1702h175l165 -272h-147z" />
<glyph unicode="&#xc1;" horiz-adv-x="1427" d="M16 0l627 1327h141l627 -1327h-170l-123 258h-811l-123 -258h-168zM369 393h688l-223 467l-121 279q-59 -158 -119 -281zM635 1430l166 272h174l-193 -272h-147z" />
<glyph unicode="&#xc2;" horiz-adv-x="1427" d="M16 0l627 1327h141l627 -1327h-170l-123 258h-811l-123 -258h-168zM369 393h688l-223 467l-121 279q-59 -158 -119 -281zM449 1430l180 272h174l180 -272h-133l-135 178l-135 -178h-131z" />
<glyph unicode="&#xc3;" horiz-adv-x="1427" d="M16 0l627 1327h141l627 -1327h-170l-123 258h-811l-123 -258h-168zM369 393h688l-223 467l-121 279q-59 -158 -119 -281zM446 1401q0 92 40 150.5t106 58.5q55 0 133 -48.5t100 -48.5q59 0 60 97h98q0 -92 -40 -150.5t-105 -58.5q-55 0 -133 48t-99 48q-59 0 -59 -96 h-101z" />
<glyph unicode="&#xc4;" horiz-adv-x="1427" d="M16 0l627 1327h141l627 -1327h-170l-123 258h-811l-123 -258h-168zM369 393h688l-223 467l-121 279q-59 -158 -119 -281zM461 1511q0 39 26.5 66t65.5 27q37 0 63.5 -27t26.5 -66q0 -37 -26.5 -63.5t-63.5 -26.5q-39 0 -65.5 26.5t-26.5 63.5zM782 1511q0 39 28 66t67 27 q37 0 63.5 -27t26.5 -66q0 -37 -27 -63.5t-63 -26.5q-39 0 -67 26.5t-28 63.5z" />
<glyph unicode="&#xc5;" horiz-adv-x="1427" d="M16 0l627 1327h141l627 -1327h-170l-123 258h-811l-123 -258h-168zM369 393h688l-223 467l-121 279q-59 -158 -119 -281zM510 1587q0 84 59.5 143.5t143.5 59.5t143 -59.5t59 -143.5t-59 -144.5t-143 -60.5t-143.5 60.5t-59.5 144.5zM602 1587q0 -49 32 -84t79 -35 t78.5 35t31.5 84q0 47 -31.5 82t-78.5 35t-79 -35t-32 -82z" />
<glyph unicode="&#xc6;" horiz-adv-x="1937" d="M16 0l863 1327h956v-145h-725v-400h672v-143h-672v-494h754v-145h-918v258h-581l-166 -258h-183zM451 393h495v787q-51 -94 -108 -185z" />
<glyph unicode="&#xc7;" horiz-adv-x="1314" d="M94 664q0 285 200 484.5t490 199.5q266 0 461 -172l-100 -113q-152 135 -350 135q-225 0 -377 -155.5t-152 -378.5q0 -221 150.5 -378t369.5 -157q229 0 388 164l104 -113q-199 -199 -485 -200l-60 -105q41 18 84 19q74 0 124 -38t50 -102q0 -82 -71.5 -136t-180.5 -54 q-127 0 -215 57l45 74q78 -49 170 -49q66 0 105 31.5t39 72.5q0 35 -27 52.5t-63 17.5q-35 0 -70 -16.5t-51 -39.5l-88 33l112 189q-260 33 -431 224t-171 454z" />
<glyph unicode="&#xc8;" horiz-adv-x="1263" d="M156 0v1327h1005v-145h-842v-402h787v-143h-787v-492h871v-145h-1034zM459 1702h174l166 -272h-148z" />
<glyph unicode="&#xc9;" horiz-adv-x="1263" d="M156 0v1327h1005v-145h-842v-402h787v-143h-787v-492h871v-145h-1034zM541 1430l166 272h174l-193 -272h-147z" />
<glyph unicode="&#xca;" horiz-adv-x="1263" d="M156 0v1327h1005v-145h-842v-402h787v-143h-787v-492h871v-145h-1034zM422 1430l180 272h174l180 -272h-133l-135 178l-135 -178h-131z" />
<glyph unicode="&#xcb;" horiz-adv-x="1263" d="M156 0v1327h1005v-145h-842v-402h787v-143h-787v-492h871v-145h-1034zM438 1530q0 39 27 65.5t65 26.5q37 0 64 -26.5t27 -65.5q0 -37 -27 -63.5t-64 -26.5q-39 0 -65.5 26.5t-26.5 63.5zM760 1530q0 39 27.5 65.5t66.5 26.5q37 0 63.5 -26.5t26.5 -65.5 q0 -37 -26.5 -63.5t-63.5 -26.5q-39 0 -66.5 26.5t-27.5 63.5z" />
<glyph unicode="&#xcc;" horiz-adv-x="475" d="M-6 1702h174l166 -272h-148zM156 0v1327h163v-1327h-163z" />
<glyph unicode="&#xcd;" horiz-adv-x="475" d="M141 1430l166 272h174l-192 -272h-148zM156 0v1327h163v-1327h-163z" />
<glyph unicode="&#xce;" horiz-adv-x="475" d="M-29 1430l181 272h174l180 -272h-133l-135 178l-136 -178h-131zM156 0v1327h163v-1327h-163z" />
<glyph unicode="&#xcf;" horiz-adv-x="475" d="M-14 1511q0 39 26.5 66t65.5 27q37 0 63.5 -27t26.5 -66q0 -37 -26.5 -63.5t-63.5 -26.5q-39 0 -65.5 26.5t-26.5 63.5zM156 0v1327h163v-1327h-163zM307 1511q0 39 27.5 66t66.5 27q37 0 64 -27t27 -66q0 -37 -27 -63.5t-64 -26.5q-39 0 -66.5 26.5t-27.5 63.5z" />
<glyph unicode="&#xd0;" horiz-adv-x="1447" d="M-33 616v127h189v584h516q291 0 486.5 -193.5t195.5 -470t-195.5 -470t-486.5 -193.5h-516v616h-189zM319 145h349q219 0 366.5 150.5t147.5 368t-147.5 368t-366.5 150.5h-349v-439h377v-127h-377v-471z" />
<glyph unicode="&#xd1;" horiz-adv-x="1441" d="M156 0v1327h159l635 -823q39 -49 82 -112.5t66 -100.5l24 -39v1075h164v-1327h-164l-614 797q-45 57 -92 124.5t-72 106.5l-25 39v-1067h-163zM453 1419q0 92 39.5 150.5t105.5 58.5q55 0 133 -48t100 -48q59 0 60 96h98q0 -92 -40 -150.5t-105 -58.5q-55 0 -133 48.5 t-99 48.5q-59 0 -59 -97h-100z" />
<glyph unicode="&#xd2;" horiz-adv-x="1570" d="M94 663.5q0 284.5 201 484.5t491.5 200t491.5 -200t201 -484.5t-200 -484t-492.5 -199.5t-492.5 199.5t-200 484zM266 664q0 -221 150.5 -378t370 -157t370 156.5t150.5 378.5q0 223 -150.5 378.5t-370 155.5t-370 -155.5t-150.5 -378.5zM543 1702h174l166 -272h-148z " />
<glyph unicode="&#xd3;" horiz-adv-x="1570" d="M94 663.5q0 284.5 201 484.5t491.5 200t491.5 -200t201 -484.5t-200 -484t-492.5 -199.5t-492.5 199.5t-200 484zM266 664q0 -221 150.5 -378t370 -157t370 156.5t150.5 378.5q0 223 -150.5 378.5t-370 155.5t-370 -155.5t-150.5 -378.5zM692 1430l166 272h174l-192 -272 h-148z" />
<glyph unicode="&#xd4;" horiz-adv-x="1570" d="M94 663.5q0 284.5 201 484.5t491.5 200t491.5 -200t201 -484.5t-200 -484t-492.5 -199.5t-492.5 199.5t-200 484zM266 664q0 -221 150.5 -378t370 -157t370 156.5t150.5 378.5q0 223 -150.5 378.5t-370 155.5t-370 -155.5t-150.5 -378.5zM522 1430l180 272h175l180 -272 h-133l-136 178l-135 -178h-131z" />
<glyph unicode="&#xd5;" horiz-adv-x="1570" d="M94 663.5q0 284.5 201 484.5t491.5 200t491.5 -200t201 -484.5t-200 -484t-492.5 -199.5t-492.5 199.5t-200 484zM266 664q0 -221 150.5 -378t370 -157t370 156.5t150.5 378.5q0 223 -150.5 378.5t-370 155.5t-370 -155.5t-150.5 -378.5zM518 1419q0 92 40 150.5 t106 58.5q55 0 132.5 -48t100.5 -48q59 0 59 96h99q0 -92 -40 -150.5t-106 -58.5q-55 0 -133 48.5t-98 48.5q-59 0 -60 -97h-100z" />
<glyph unicode="&#xd6;" horiz-adv-x="1570" d="M94 663.5q0 284.5 201 484.5t491.5 200t491.5 -200t201 -484.5t-200 -484t-492.5 -199.5t-492.5 199.5t-200 484zM266 664q0 -221 150.5 -378t370 -157t370 156.5t150.5 378.5q0 223 -150.5 378.5t-370 155.5t-370 -155.5t-150.5 -378.5zM535 1511q0 39 26.5 66t65.5 27 q37 0 63.5 -27t26.5 -66q0 -37 -26.5 -63.5t-63.5 -26.5q-39 0 -65.5 26.5t-26.5 63.5zM856 1511q0 39 27.5 66t66.5 27q37 0 63.5 -27t26.5 -66q0 -37 -26.5 -63.5t-63.5 -26.5q-39 0 -66.5 26.5t-27.5 63.5z" />
<glyph unicode="&#xd7;" d="M145 879l99 94l336 -336l338 336l100 -96l-340 -336l336 -334l-99 -98l-335 331l-334 -331l-96 98l333 334z" />
<glyph unicode="&#xd8;" horiz-adv-x="1570" d="M94 664q0 285 200.5 484.5t491.5 199.5q168 0 312 -74l114 190l82 -49l-112 -188q137 -94 217 -242.5t80 -320.5q0 -285 -200 -484.5t-493 -199.5q-168 0 -313 69l-113 -188l-81 47l112 190q-139 94 -218 242.5t-79 323.5zM266 664q0 -129 55.5 -243t151.5 -188l547 910 q-111 55 -234 55q-219 0 -369.5 -155.5t-150.5 -378.5zM555 184q110 -55 231 -55q219 0 370 156.5t151 378.5q0 129 -55.5 240.5t-151.5 187.5z" />
<glyph unicode="&#xd9;" horiz-adv-x="1368" d="M135 512v815h164v-815q0 -168 111.5 -275.5t273.5 -107.5t273.5 107.5t111.5 275.5v815h164v-815q0 -236 -160 -384t-389 -148q-231 0 -390 148t-159 384zM461 1702h174l166 -272h-148z" />
<glyph unicode="&#xda;" horiz-adv-x="1368" d="M135 512v815h164v-815q0 -168 111.5 -275.5t273.5 -107.5t273.5 107.5t111.5 275.5v815h164v-815q0 -236 -160 -384t-389 -148q-231 0 -390 148t-159 384zM561 1430l166 272h174l-192 -272h-148z" />
<glyph unicode="&#xdb;" horiz-adv-x="1366" d="M135 512v815h164v-815q0 -168 111.5 -275.5t273.5 -107.5t273.5 107.5t111.5 275.5v815h164v-815q0 -236 -160 -384t-389 -148q-231 0 -390 148t-159 384zM420 1430l180 272h174l180 -272h-133l-135 178l-135 -178h-131z" />
<glyph unicode="&#xdc;" horiz-adv-x="1366" d="M135 512v815h164v-815q0 -168 111.5 -275.5t273.5 -107.5t273.5 107.5t111.5 275.5v815h164v-815q0 -236 -160 -384t-389 -148q-231 0 -390 148t-159 384zM432 1511q0 39 26.5 66t65.5 27q37 0 63.5 -27t26.5 -66q0 -37 -26.5 -63.5t-63.5 -26.5q-39 0 -65.5 26.5 t-26.5 63.5zM754 1511q0 39 27.5 66t66.5 27q37 0 63.5 -27t26.5 -66q0 -37 -26.5 -63.5t-63.5 -26.5q-39 0 -66.5 26.5t-27.5 63.5z" />
<glyph unicode="&#xdd;" horiz-adv-x="1275" d="M20 1327h193l268 -340q33 -41 73 -96t62 -90l23 -35q90 131 160 221l264 340h192l-534 -696v-631h-164v629zM541 1430l166 272h174l-193 -272h-147z" />
<glyph unicode="&#xde;" horiz-adv-x="1218" d="M156 0v1327h163v-217h361q184 0 315 -130t131 -312.5t-131 -312.5t-315 -130h-361v-225h-163zM319 371h347q121 0 205.5 87t84.5 210q0 121 -86 209t-204 88h-347v-594z" />
<glyph unicode="&#xdf;" horiz-adv-x="1120" d="M156 0v924q0 207 99 315.5t267 108.5q162 0 272.5 -109t110.5 -264q0 -209 -133 -299q125 -20 208 -117.5t83 -222.5q0 -156 -106.5 -256t-260.5 -100q-139 0 -235 81l65 132q63 -63 154 -64q92 0 156.5 65.5t64.5 157.5q0 100 -74.5 165t-218.5 65h-69v123h14 q76 4 136.5 64t60.5 185q0 102 -62.5 172t-161.5 70q-96 0 -155.5 -69.5t-59.5 -188.5v-938h-155z" />
<glyph unicode="&#xe0;" horiz-adv-x="1220" d="M84 498q0 217 138 368.5t343 151.5q240 0 365 -193v172h155v-997h-155v170q-123 -190 -365 -190q-205 0 -343 151.5t-138 366.5zM244 497.5q0 -155.5 99 -261t247 -105.5q143 0 241.5 104.5t98.5 262.5q0 156 -97.5 262t-242.5 106q-147 0 -246.5 -106.5t-99.5 -262z M338 1430h174l166 -273h-148z" />
<glyph unicode="&#xe1;" horiz-adv-x="1220" d="M84 498q0 217 138 368.5t343 151.5q240 0 365 -193v172h155v-997h-155v170q-123 -190 -365 -190q-205 0 -343 151.5t-138 366.5zM244 497.5q0 -155.5 99 -261t247 -105.5q143 0 241.5 104.5t98.5 262.5q0 156 -97.5 262t-242.5 106q-147 0 -246.5 -106.5t-99.5 -262z M465 1157l166 273h174l-193 -273h-147z" />
<glyph unicode="&#xe2;" horiz-adv-x="1220" d="M84 498q0 217 138 368.5t343 151.5q240 0 365 -193v172h155v-997h-155v170q-123 -190 -365 -190q-205 0 -343 151.5t-138 366.5zM244 497.5q0 -155.5 99 -261t247 -105.5q143 0 241.5 104.5t98.5 262.5q0 156 -97.5 262t-242.5 106q-147 0 -246.5 -106.5t-99.5 -262z M328 1145l180 272h174l180 -272h-133l-135 178l-135 -178h-131z" />
<glyph unicode="&#xe3;" horiz-adv-x="1220" d="M84 498q0 217 138 368.5t343 151.5q240 0 365 -193v172h155v-997h-155v170q-123 -190 -365 -190q-205 0 -343 151.5t-138 366.5zM244 497.5q0 -155.5 99 -261t247 -105.5q143 0 241.5 104.5t98.5 262.5q0 156 -97.5 262t-242.5 106q-147 0 -246.5 -106.5t-99.5 -262z M317 1153q0 92 40 150.5t106 58.5q55 0 133 -48t100 -48q59 0 60 96h98q0 -92 -40 -150.5t-105 -58.5q-55 0 -133 48t-99 48q-59 0 -59 -96h-101z" />
<glyph unicode="&#xe4;" horiz-adv-x="1220" d="M84 498q0 217 138 368.5t343 151.5q240 0 365 -193v172h155v-997h-155v170q-123 -190 -365 -190q-205 0 -343 151.5t-138 366.5zM244 497.5q0 -155.5 99 -261t247 -105.5q143 0 241.5 104.5t98.5 262.5q0 156 -97.5 262t-242.5 106q-147 0 -246.5 -106.5t-99.5 -262z M332 1260q0 39 26.5 65.5t65.5 26.5q37 0 63.5 -27t26.5 -65q0 -37 -26.5 -64t-63.5 -27q-39 0 -65.5 27t-26.5 64zM653 1260q0 39 28 65.5t67 26.5q37 0 63.5 -27t26.5 -65q0 -37 -27 -64t-63 -27q-39 0 -67 27t-28 64z" />
<glyph unicode="&#xe5;" horiz-adv-x="1220" d="M84 498q0 217 138 368.5t343 151.5q240 0 365 -193v172h155v-997h-155v170q-123 -190 -365 -190q-205 0 -343 151.5t-138 366.5zM244 497.5q0 -155.5 99 -261t247 -105.5q143 0 241.5 104.5t98.5 262.5q0 156 -97.5 262t-242.5 106q-147 0 -246.5 -106.5t-99.5 -262z M397 1325q0 84 59.5 143.5t143.5 59.5t143.5 -59.5t59.5 -143.5t-59.5 -144.5t-143.5 -60.5t-143.5 60.5t-59.5 144.5zM489 1325q0 -49 32 -84t79 -35t79 35t32 84q0 47 -32 82t-79 35t-79 -35t-32 -82z" />
<glyph unicode="&#xe6;" horiz-adv-x="1875" d="M84 272q0 92 43 160t119 104.5t161 53t183 16.5q133 0 231 -10q-4 137 -79.5 210t-204.5 73q-88 0 -165 -20.5t-110 -41.5l-33 -20l-63 112q14 12 43 30.5t124 48.5t199 30q293 0 392 -240q63 111 171.5 175.5t237.5 64.5q199 0 339 -151.5t140 -362.5l-4 -64h-813 q20 -143 126 -232t249 -89q172 0 297 114l70 -114q-160 -139 -375 -139q-147 0 -268 68.5t-181 187.5q-57 -123 -185 -189.5t-284 -66.5q-162 0 -261 77.5t-99 214.5zM240 285q0 -82 60 -125t153 -43q180 0 279 93t99 236v35q-61 6 -241 6q-147 0 -248.5 -48t-101.5 -154z M995 563h660q-14 135 -107.5 225.5t-220.5 90.5q-125 0 -219.5 -90.5t-112.5 -225.5z" />
<glyph unicode="&#xe7;" horiz-adv-x="1038" d="M84 498q0 215 153.5 367.5t370.5 152.5q205 0 359 -137l-101 -111q-102 96 -255.5 96t-260 -106.5t-106.5 -261.5q0 -154 106.5 -260.5t263.5 -106.5q174 0 283 115l92 -115q-143 -139 -350 -149l-59 -107q41 18 84 19q74 0 124 -38t50 -102q0 -82 -72 -136t-180 -54 q-127 0 -215 57l45 74q78 -49 170 -49q66 0 104.5 31.5t38.5 72.5q0 35 -26.5 52.5t-63.5 17.5q-35 0 -69.5 -16.5t-51.5 -39.5l-88 33l111 187q-195 25 -326 171t-131 343z" />
<glyph unicode="&#xe8;" horiz-adv-x="1146" d="M84 498q0 215 145.5 367.5t354.5 152.5q197 0 338 -151.5t141 -360.5l-4 -66h-811q18 -143 120.5 -231t241.5 -88q180 0 308 115l73 -113q-170 -143 -381 -143q-219 0 -372.5 145.5t-153.5 372.5zM246 563h659q-14 137 -107 226.5t-220 89.5q-125 0 -219.5 -90.5 t-112.5 -225.5zM328 1430h174l166 -273h-148z" />
<glyph unicode="&#xe9;" horiz-adv-x="1146" d="M84 498q0 215 145.5 367.5t354.5 152.5q197 0 338 -151.5t141 -360.5l-4 -66h-811q18 -143 120.5 -231t241.5 -88q180 0 308 115l73 -113q-170 -143 -381 -143q-219 0 -372.5 145.5t-153.5 372.5zM246 563h659q-14 137 -107 226.5t-220 89.5q-125 0 -219.5 -90.5 t-112.5 -225.5zM487 1157l166 273h174l-192 -273h-148z" />
<glyph unicode="&#xea;" horiz-adv-x="1146" d="M84 498q0 215 145.5 367.5t354.5 152.5q197 0 338 -151.5t141 -360.5l-4 -66h-811q18 -143 120.5 -231t241.5 -88q180 0 308 115l73 -113q-170 -143 -381 -143q-219 0 -372.5 145.5t-153.5 372.5zM246 563h659q-14 137 -107 226.5t-220 89.5q-125 0 -219.5 -90.5 t-112.5 -225.5zM299 1145l180 272h174l181 -272h-134l-135 178l-135 -178h-131z" />
<glyph unicode="&#xeb;" horiz-adv-x="1146" d="M84 498q0 215 145.5 367.5t354.5 152.5q197 0 338 -151.5t141 -360.5l-4 -66h-811q18 -143 120.5 -231t241.5 -88q180 0 308 115l73 -113q-170 -143 -381 -143q-219 0 -372.5 145.5t-153.5 372.5zM246 563h659q-14 137 -107 226.5t-220 89.5q-125 0 -219.5 -90.5 t-112.5 -225.5zM315 1260q0 39 27 65.5t66 26.5q37 0 63.5 -27t26.5 -65q0 -37 -27 -64t-63 -27q-39 0 -66 27t-27 64zM637 1260q0 39 27.5 65.5t66.5 26.5q37 0 63.5 -27t26.5 -65q0 -37 -26.5 -64t-63.5 -27q-39 0 -66.5 27t-27.5 64z" />
<glyph unicode="&#xec;" horiz-adv-x="425" d="M-27 1430h174l166 -273h-147zM135 0v997h156v-997h-156z" />
<glyph unicode="&#xed;" horiz-adv-x="425" d="M111 1157l165 273h175l-193 -273h-147zM135 0v997h156v-997h-156z" />
<glyph unicode="&#xee;" horiz-adv-x="425" d="M-53 1145l180 272h174l180 -272h-133l-135 178l-135 -178h-131zM135 0v997h156v-997h-156z" />
<glyph unicode="&#xef;" horiz-adv-x="425" d="M-39 1260q0 39 26.5 65.5t65.5 26.5q37 0 63.5 -27t26.5 -65q0 -37 -26.5 -64t-63.5 -27q-39 0 -65.5 27t-26.5 64zM135 0v997h156v-997h-156zM283 1260q0 39 27.5 65.5t66.5 26.5q37 0 63.5 -27t26.5 -65q0 -37 -26.5 -64t-63.5 -27q-39 0 -66.5 27t-27.5 64z" />
<glyph unicode="&#xf0;" horiz-adv-x="1216" d="M84 498q0 207 152.5 354t367.5 147q133 0 223 -71q-100 131 -260 227l-198 -86l-37 76l135 59q-68 29 -158 58l66 96q125 -35 235 -92l207 90l37 -74l-152 -68q180 -123 305.5 -311t125.5 -393q0 -219 -151 -374.5t-374 -155.5q-217 0 -370.5 151.5t-153.5 366.5z M244 498q0 -152 106.5 -259.5t258 -107.5t258 107.5t106.5 259.5q0 145 -106.5 247.5t-258 102.5t-258 -102.5t-106.5 -247.5z" />
<glyph unicode="&#xf1;" horiz-adv-x="1112" d="M135 0v997h156v-159q113 180 340 180q182 0 274 -107.5t92 -302.5v-608h-155v584q0 139 -58.5 210.5t-193.5 71.5q-123 0 -211 -87t-88 -220v-559h-156zM291 1153q0 92 40 150.5t105 58.5q55 0 133 -48t101 -48q59 0 59 96h98q0 -92 -39.5 -150.5t-105.5 -58.5 q-55 0 -133 48t-98 48q-59 0 -60 -96h-100z" />
<glyph unicode="&#xf2;" horiz-adv-x="1216" d="M84 498q0 215 153.5 367.5t370.5 152.5t371 -152.5t154 -367.5q0 -213 -154 -365.5t-371 -152.5t-370.5 152.5t-153.5 365.5zM244 497.5q0 -151.5 106.5 -259t258 -107.5t258 107.5t106.5 259t-106.5 260t-258 108.5t-258 -108.5t-106.5 -260zM377 1430h174l166 -273 h-148z" />
<glyph unicode="&#xf3;" horiz-adv-x="1216" d="M84 498q0 215 153.5 367.5t370.5 152.5t371 -152.5t154 -367.5q0 -213 -154 -365.5t-371 -152.5t-370.5 152.5t-153.5 365.5zM244 497.5q0 -151.5 106.5 -259t258 -107.5t258 107.5t106.5 259t-106.5 260t-258 108.5t-258 -108.5t-106.5 -260zM500 1157l166 273h174 l-193 -273h-147z" />
<glyph unicode="&#xf4;" horiz-adv-x="1216" d="M84 498q0 215 153.5 367.5t370.5 152.5t371 -152.5t154 -367.5q0 -213 -154 -365.5t-371 -152.5t-370.5 152.5t-153.5 365.5zM244 497.5q0 -151.5 106.5 -259t258 -107.5t258 107.5t106.5 259t-106.5 260t-258 108.5t-258 -108.5t-106.5 -260zM342 1145l180 272h174 l181 -272h-134l-135 178l-135 -178h-131z" />
<glyph unicode="&#xf5;" horiz-adv-x="1216" d="M84 498q0 215 153.5 367.5t370.5 152.5t371 -152.5t154 -367.5q0 -213 -154 -365.5t-371 -152.5t-370.5 152.5t-153.5 365.5zM244 497.5q0 -151.5 106.5 -259t258 -107.5t258 107.5t106.5 259t-106.5 260t-258 108.5t-258 -108.5t-106.5 -260zM340 1153q0 92 40 150.5 t105 58.5q55 0 133 -48t101 -48q59 0 59 96h99q0 -92 -40 -150.5t-106 -58.5q-55 0 -133 48t-98 48q-59 0 -60 -96h-100z" />
<glyph unicode="&#xf6;" horiz-adv-x="1216" d="M84 498q0 215 153.5 367.5t370.5 152.5t371 -152.5t154 -367.5q0 -213 -154 -365.5t-371 -152.5t-370.5 152.5t-153.5 365.5zM244 497.5q0 -151.5 106.5 -259t258 -107.5t258 107.5t106.5 259t-106.5 260t-258 108.5t-258 -108.5t-106.5 -260zM356 1260q0 39 27 65.5 t66 26.5q37 0 63.5 -27t26.5 -65q0 -37 -27 -64t-63 -27q-39 0 -66 27t-27 64zM678 1260q0 39 27.5 65.5t66.5 26.5q37 0 63.5 -27t26.5 -65q0 -37 -26.5 -64t-63.5 -27q-39 0 -66.5 27t-27.5 64z" />
<glyph unicode="&#xf7;" d="M125 475v133h913v-133h-913zM465 236q0 47 33.5 81.5t81.5 34.5q49 0 83.5 -34.5t34.5 -81.5q0 -49 -34.5 -83t-83.5 -34q-47 0 -81 34t-34 83zM465 850q0 47 33.5 82t81.5 35q49 0 83.5 -35t34.5 -82q0 -49 -34.5 -83t-83.5 -34q-47 0 -81 34t-34 83z" />
<glyph unicode="&#xf8;" horiz-adv-x="1216" d="M84 498q0 215 153.5 367.5t370.5 152.5q117 0 223 -51l97 159l78 -47l-95 -157q102 -72 162 -183.5t60 -240.5q0 -213 -154 -365.5t-371 -152.5q-113 0 -229 51l-90 -152l-80 47l92 152q-100 72 -158.5 182.5t-58.5 237.5zM244 498q0 -176 137 -287l371 625 q-63 31 -144 30q-152 0 -258 -108t-106 -260zM457 162q68 -31 151 -31q152 0 258.5 107.5t106.5 259.5q0 182 -142 290z" />
<glyph unicode="&#xf9;" horiz-adv-x="1099" d="M115 381v616h155v-583q0 -283 256 -283q123 0 203 84t80 227v555h156v-997h-156v154q-106 -174 -322 -174q-182 0 -277 111.5t-95 289.5zM338 1430h174l166 -273h-148z" />
<glyph unicode="&#xfa;" horiz-adv-x="1099" d="M115 381v616h155v-583q0 -283 256 -283q123 0 203 84t80 227v555h156v-997h-156v154q-106 -174 -322 -174q-182 0 -277 111.5t-95 289.5zM422 1157l166 273h174l-193 -273h-147z" />
<glyph unicode="&#xfb;" horiz-adv-x="1099" d="M115 381v616h155v-583q0 -283 256 -283q123 0 203 84t80 227v555h156v-997h-156v154q-106 -174 -322 -174q-182 0 -277 111.5t-95 289.5zM266 1145l180 272h175l180 -272h-133l-136 178l-135 -178h-131z" />
<glyph unicode="&#xfc;" horiz-adv-x="1099" d="M115 381v616h155v-583q0 -283 256 -283q123 0 203 84t80 227v555h156v-997h-156v154q-106 -174 -322 -174q-182 0 -277 111.5t-95 289.5zM283 1260q0 39 26.5 65.5t65.5 26.5q37 0 63.5 -27t26.5 -65q0 -37 -26.5 -64t-63.5 -27q-39 0 -65.5 27t-26.5 64zM604 1260 q0 39 27.5 65.5t66.5 26.5q37 0 63.5 -27t26.5 -65q0 -37 -26.5 -64t-63.5 -27q-39 0 -66.5 27t-27.5 64z" />
<glyph unicode="&#xfd;" horiz-adv-x="1077" d="M23 997h165l295 -624l68 -156l67 162l269 618h162l-467 -1046q-37 -84 -82 -138.5t-97.5 -77t-91.5 -29.5t-94 -7v147q88 0 140.5 36t99.5 138l20 46zM461 1157l166 273h174l-193 -273h-147z" />
<glyph unicode="&#xfe;" horiz-adv-x="1214" d="M135 -281v1608h156v-502q57 90 151.5 141.5t208.5 51.5q205 0 342 -151.5t137 -368.5q0 -215 -136 -366.5t-337 -151.5q-117 0 -213 50t-153 140v-451h-156zM291 498q0 -156 97 -261.5t242.5 -105.5t243 105.5t97.5 261.5q0 158 -97.5 264t-243 106t-242.5 -106t-97 -264 z" />
<glyph unicode="&#xff;" horiz-adv-x="1077" d="M23 997h165l295 -624l68 -156l67 162l269 618h162l-467 -1046q-37 -84 -82 -138.5t-97.5 -77t-91.5 -29.5t-94 -7v147q88 0 140.5 36t99.5 138l20 46zM303 1260q0 39 26.5 65.5t65.5 26.5q37 0 63.5 -27t26.5 -65q0 -37 -26.5 -64t-63.5 -27q-39 0 -65.5 27t-26.5 64z M625 1260q0 39 27.5 65.5t66.5 26.5q37 0 63.5 -27t26.5 -65q0 -37 -26.5 -64t-63.5 -27q-39 0 -66.5 27t-27.5 64z" />
<glyph unicode="&#x152;" horiz-adv-x="2121" d="M94 663.5q0 284.5 201 484.5t491 200q188 0 344 -109v88h889v-145h-725v-402h674v-143h-674v-492h754v-145h-918v86q-145 -106 -344 -106q-293 0 -492.5 199.5t-199.5 484zM266 663.5q0 -221.5 152.5 -378t376.5 -156.5q201 0 335 125v817q-135 125 -335 125 q-223 0 -376 -155.5t-153 -377z" />
<glyph unicode="&#x153;" horiz-adv-x="2033" d="M84 498q0 215 153.5 367.5t370.5 152.5q141 0 259 -76t180 -199q61 125 173.5 200t249.5 75q199 0 339.5 -151.5t140.5 -362.5l-4 -64h-813q20 -145 123.5 -234t242.5 -89q174 0 301 121l76 -115q-156 -143 -375 -143q-147 0 -272 73.5t-182 198.5q-61 -123 -179 -197.5 t-260 -74.5q-217 0 -370.5 152.5t-153.5 365.5zM244 497.5q0 -151.5 106.5 -259t258 -107.5t258 107.5t106.5 259t-106.5 260t-258 108.5t-258 -108.5t-106.5 -260zM1130 563h662q-14 135 -107.5 225.5t-220.5 90.5q-125 0 -219.5 -90.5t-114.5 -225.5z" />
<glyph unicode="&#x178;" horiz-adv-x="1275" d="M20 1327h193l268 -340q33 -41 73 -96t62 -90l23 -35q90 131 160 221l264 340h192l-534 -696v-631h-164v629zM387 1511q0 39 26.5 66t65.5 27q37 0 63.5 -27t26.5 -66q0 -37 -26.5 -63.5t-63.5 -26.5q-39 0 -65.5 26.5t-26.5 63.5zM709 1511q0 39 27.5 66t66.5 27 q37 0 63.5 -27t26.5 -66q0 -37 -26.5 -63.5t-63.5 -26.5q-39 0 -66.5 26.5t-27.5 63.5z" />
<glyph unicode="&#x2c6;" horiz-adv-x="696" d="M82 1145l180 272h174l180 -272h-133l-135 178l-135 -178h-131z" />
<glyph unicode="&#x2dc;" horiz-adv-x="696" d="M78 1153q0 92 40 150.5t105 58.5q55 0 133 -48t101 -48q59 0 59 96h98q0 -92 -39.5 -150.5t-105.5 -58.5q-55 0 -133 48t-98 48q-59 0 -60 -96h-100z" />
<glyph unicode="&#x2000;" horiz-adv-x="895" />
<glyph unicode="&#x2001;" horiz-adv-x="1790" />
<glyph unicode="&#x2002;" horiz-adv-x="895" />
<glyph unicode="&#x2003;" horiz-adv-x="1790" />
<glyph unicode="&#x2004;" horiz-adv-x="596" />
<glyph unicode="&#x2005;" horiz-adv-x="447" />
<glyph unicode="&#x2006;" horiz-adv-x="298" />
<glyph unicode="&#x2007;" horiz-adv-x="298" />
<glyph unicode="&#x2008;" horiz-adv-x="223" />
<glyph unicode="&#x2009;" horiz-adv-x="358" />
<glyph unicode="&#x200a;" horiz-adv-x="99" />
<glyph unicode="&#x2010;" horiz-adv-x="899" d="M61 420v135h777v-135h-777z" />
<glyph unicode="&#x2011;" horiz-adv-x="899" d="M61 420v135h777v-135h-777z" />
<glyph unicode="&#x2012;" horiz-adv-x="899" d="M61 420v135h777v-135h-777z" />
<glyph unicode="&#x2013;" horiz-adv-x="1218" d="M41 416v139h1137v-139h-1137z" />
<glyph unicode="&#x2014;" horiz-adv-x="1449" d="M41 416v139h1368v-139h-1368z" />
<glyph unicode="&#x2018;" horiz-adv-x="432" d="M84 858l143 469h121l-100 -469h-164z" />
<glyph unicode="&#x2019;" horiz-adv-x="432" d="M84 858l100 469h164l-143 -469h-121z" />
<glyph unicode="&#x201a;" horiz-adv-x="432" d="M84 -281l100 469h164l-143 -469h-121z" />
<glyph unicode="&#x201c;" horiz-adv-x="741" d="M84 858l143 469h121l-100 -469h-164zM393 858l144 469h120l-100 -469h-164z" />
<glyph unicode="&#x201d;" horiz-adv-x="741" d="M84 858l100 469h164l-143 -469h-121zM393 858l101 469h163l-143 -469h-121z" />
<glyph unicode="&#x201e;" horiz-adv-x="741" d="M84 -281l100 469h164l-143 -469h-121zM393 -281l101 469h163l-143 -469h-121z" />
<glyph unicode="&#x2022;" horiz-adv-x="757" d="M115 571q0 111 77.5 188t186.5 77q111 0 187.5 -77t76.5 -188q0 -109 -77 -186.5t-187 -77.5q-109 0 -186.5 77.5t-77.5 186.5z" />
<glyph unicode="&#x2026;" horiz-adv-x="1386" d="M102 92q0 47 33 80t80 33t80 -33t33 -80t-33 -79.5t-80 -32.5t-80 32.5t-33 79.5zM582 92q0 47 32.5 80t79.5 33t80 -33t33 -80t-33 -79.5t-80 -32.5t-79.5 32.5t-32.5 79.5zM1057 92q0 47 32.5 80t80 33t81 -33t33.5 -80t-33.5 -79.5t-81 -32.5t-80 32.5t-32.5 79.5z " />
<glyph unicode="&#x202f;" horiz-adv-x="358" />
<glyph unicode="&#x2039;" horiz-adv-x="567" d="M68 457v80l348 342l78 -78l-285 -303l285 -305l-78 -78z" />
<glyph unicode="&#x203a;" horiz-adv-x="567" d="M70 193l284 305l-284 303l77 78l351 -342v-80l-351 -342z" />
<glyph unicode="&#x205f;" horiz-adv-x="447" />
<glyph unicode="&#x20ac;" horiz-adv-x="1191" d="M70 475l30 115h117q0 10 -1 36.5t-1 41.5q0 53 4 69h-129l31 113h110q47 227 189.5 362.5t343.5 135.5q238 0 389 -197l-96 -100q-115 152 -287 151q-135 0 -233.5 -96t-135.5 -256h529l-29 -113h-520q-4 -12 -4 -69l4 -78h489l-30 -115h-441q37 -160 135.5 -256 t233.5 -96q186 0 311 184l107 -90q-154 -238 -422 -237q-199 0 -342 135t-189 360h-163z" />
<glyph unicode="&#x2122;" horiz-adv-x="1630" d="M43 1221v106h512v-106h-199v-486h-114v486h-199zM635 735v592h84l215 -213l213 213h86v-592h-117v402l-182 -179l-186 181v-404h-113z" />
<glyph unicode="&#x25fc;" horiz-adv-x="993" d="M0 0v993h993v-993h-993z" />
</font>
</defs>
</svg>
