<?xml version="1.0" standalone="no"?>
<!DOCTYPE svg PUBLIC "-//W3C//DTD SVG 1.1//EN" "http://www.w3.org/Graphics/SVG/1.1/DTD/svg11.dtd" >
<svg xmlns="http://www.w3.org/2000/svg" xmlns:xlink="http://www.w3.org/1999/xlink" version="1.1">
<metadata></metadata>
<defs>
<font id="arboria-bolduploaded_file" horiz-adv-x="1187" >
<font-face units-per-em="2048" ascent="1630" descent="-418" />
<missing-glyph horiz-adv-x="573" />
<glyph unicode="&#xfb01;" horiz-adv-x="1200" d="M-16 803v221h161v70q0 76 24 137t58.5 97t79.5 59.5t85 33t75 9.5q92 0 161.5 -20.5t94.5 -41.5l25 -20l-105 -189q-76 43 -127 43q-96 0 -96 -121v-57h254v-221h-256v-803h-275v803h-159zM778 1288q0 68 48 116t114 48q68 0 116 -48t48 -116q0 -66 -48 -114t-116 -48 q-66 0 -114 48t-48 114zM803 0v1024h274v-1024h-274z" />
<glyph unicode="&#xfb02;" horiz-adv-x="1200" d="M-16 803v221h161v70q0 76 24 137t58.5 97t79.5 59.5t85 33t75 9.5q92 0 161.5 -20.5t94.5 -41.5l25 -20l-105 -189q-76 43 -127 43q-96 0 -96 -121v-57h254v-221h-256v-803h-275v803h-159zM803 0v1348h274v-1348h-274z" />
<glyph horiz-adv-x="0" />
<glyph unicode="&#xd;" horiz-adv-x="681" />
<glyph unicode=" "  horiz-adv-x="573" />
<glyph unicode="&#x09;" horiz-adv-x="573" />
<glyph unicode="&#xa0;" horiz-adv-x="573" />
<glyph unicode="!" horiz-adv-x="550" d="M113 143q0 66 48 114t113 48q68 0 116 -48t48 -114q0 -68 -48 -115.5t-116 -47.5q-66 0 -113.5 47.5t-47.5 115.5zM137 1327h275l-21 -899h-233z" />
<glyph unicode="&#x22;" horiz-adv-x="882" d="M145 770v557h213v-557h-213zM524 770v557h213v-557h-213z" />
<glyph unicode="#" d="M80 373l43 176h151l70 289h-151l40 176h154l76 313h196l-75 -313h188l76 313h188l-75 -313h145l-41 -176h-147l-68 -289h145l-43 -176h-145l-90 -373h-189l90 373h-188l-90 -373h-197l90 373h-153zM473 549h186l72 289h-190z" />
<glyph unicode="$" d="M106 186l97 213q174 -139 389 -139q86 0 147.5 44t61.5 104q0 43 -33 73.5t-69.5 44t-98.5 29.5q-100 25 -165.5 48.5t-138.5 66.5t-109.5 110.5t-36.5 159.5q0 145 95 234.5t244 115.5v234h218v-234q174 -23 319 -123l-98 -213q-88 55 -162 79t-174 24q-68 0 -116 -32 t-48 -77q0 -59 47 -89t152 -56q205 -49 328.5 -140.5t123.5 -254.5q0 -160 -105.5 -256.5t-266.5 -122.5v-256h-218v250q-225 22 -383 163z" />
<glyph unicode="%" horiz-adv-x="1871" d="M102 940q0 180 93.5 294t239 114t237.5 -114t92 -294t-92 -292.5t-237.5 -112.5t-239 112.5t-93.5 292.5zM297 940q0 -98 37 -160.5t100 -62.5q59 0 98 63.5t39 159.5q0 98 -38.5 161.5t-98.5 63.5q-63 0 -100 -62.5t-37 -162.5zM479 53l811 1348l129 -74l-811 -1347z M1108 387q0 180 93 294t238.5 114t237.5 -114t92 -294t-92 -292.5t-237.5 -112.5t-238.5 112.5t-93 292.5zM1303 387q0 -98 36.5 -160.5t100.5 -62.5q59 0 98 63.5t39 159.5q0 98 -39 161.5t-98 63.5q-63 0 -100 -62.5t-37 -162.5z" />
<glyph unicode="&#x26;" horiz-adv-x="1257" d="M61 391q0 217 205 363q-74 123 -73 233q0 141 100 251t287 110q55 0 100 -9.5t98 -35t102.5 -81t88.5 -139.5l-224 -149q-25 72 -69.5 119t-91.5 47t-78 -32t-31 -81q0 -117 164 -274l254 -244q23 45 22 115h259q0 -197 -82 -303l139 -136l-168 -172l-141 129 q-178 -123 -404 -122q-193 0 -325 106t-132 305zM338 412q0 -74 57.5 -124t155.5 -50q92 0 176 43l-311 286q-78 -69 -78 -155z" />
<glyph unicode="'" horiz-adv-x="503" d="M145 770v557h213v-557h-213z" />
<glyph unicode="(" horiz-adv-x="737" d="M113 583.5q0 159.5 37.5 299t101 237t125 162t131.5 113.5l147 -166q-266 -289 -266 -645.5t266 -644.5l-147 -166q-70 49 -131.5 113.5t-125 161.5t-101 236.5t-37.5 299z" />
<glyph unicode=")" horiz-adv-x="737" d="M82 -61q266 289 266 645t-266 645l147 166q70 -49 131.5 -113.5t125 -162t101.5 -237t38 -299t-38 -299t-101.5 -236.5t-125 -161.5t-131.5 -113.5z" />
<glyph unicode="*" horiz-adv-x="866" d="M68 854l223 115l-223 116l79 142l209 -131l-8 243h172l-10 -243l209 131l80 -142l-224 -116l224 -115l-80 -141l-209 131l8 -244h-172l8 242l-207 -129z" />
<glyph unicode="+" d="M115 465v221h358v354h242v-354h358v-221h-358v-348h-242v348h-358z" />
<glyph unicode="," horiz-adv-x="573" d="M82 -281l121 557h248l-195 -557h-174z" />
<glyph unicode="-" horiz-adv-x="985" d="M61 393v221h863v-221h-863z" />
<glyph unicode="." horiz-adv-x="573" d="M123 141.5q0 67.5 48 115.5t114 48q68 0 116 -48t48 -115.5t-48.5 -114.5t-116 -47t-114.5 47t-47 114.5z" />
<glyph unicode="/" horiz-adv-x="1101" d="M20 -39l877 1458h252l-877 -1458h-252z" />
<glyph unicode="0" d="M63 663.5q0 301.5 147.5 493t383 191.5t383 -191.5t147.5 -493t-147.5 -492.5t-383 -191t-383 191t-147.5 492.5zM356 663.5q0 -198.5 61.5 -318.5t176.5 -120t176 120t61 318.5t-61 318.5t-176 120t-176.5 -120t-61.5 -318.5z" />
<glyph unicode="1" d="M113 999l409 328h246v-1081h315v-246h-938v246h349v727l-258 -168z" />
<glyph unicode="2" d="M90 0v176q397 360 523 501.5t126 246.5q0 78 -49 128t-143 50q-133 0 -287 -139l-143 178q104 117 228 162t226 45q195 0 328 -107.5t133 -294.5q0 -172 -151.5 -358.5t-362.5 -341.5h555v-246h-983z" />
<glyph unicode="3" d="M90 143l135 191q121 -109 295 -109q131 0 207 59.5t76 151.5q0 78 -68.5 130t-189.5 52q-115 0 -193 -45l-106 183l389 325h-477v246h866v-237l-317 -263q166 -16 277.5 -121.5t111.5 -271.5q0 -219 -156 -336.5t-397 -117.5q-275 -1 -453 163z" />
<glyph unicode="4" d="M57 256v186l537 906l235 -131l-430 -715h306v286h274v-286h158v-246h-158v-256h-274v256h-648z" />
<glyph unicode="5" d="M121 119l96 205q127 -98 313 -99q127 0 197 60.5t70 148.5q0 109 -82 162t-215 53q-117 0 -234 -65l-100 92v651h852v-246h-578v-215q51 12 146 13q223 0 363.5 -113t140.5 -320q0 -211 -151 -338.5t-402 -127.5q-250 0 -416 139z" />
<glyph unicode="6" d="M86 457q0 190 115 352l417 586l230 -166l-232 -311l33 2q201 0 328 -131.5t127 -317.5q0 -213 -134 -352t-376 -139q-244 0 -376 134t-132 343zM385 461q0 -104 52 -168t157 -64q100 0 155.5 63.5t55.5 168.5q0 94 -58.5 155.5t-152.5 61.5q-96 0 -152.5 -61.5 t-56.5 -155.5z" />
<glyph unicode="7" d="M123 1081v246h1018v-172l-547 -1155h-301l526 1081h-696z" />
<glyph unicode="8" d="M84 395q0 217 197 316q-119 96 -119 272q0 160 117.5 262.5t314.5 102.5t314.5 -102.5t117.5 -262.5q0 -174 -121 -272q199 -98 199 -316q0 -186 -137.5 -300.5t-373 -114.5t-372.5 114.5t-137 300.5zM377 410q0 -80 57.5 -132.5t159.5 -52.5t159.5 52.5t57.5 132.5 q0 76 -55.5 132t-162 56t-161.5 -56t-55 -132zM420 961q0 -66 44 -113t130 -47t130 47t44 113q0 68 -46 113.5t-128 45.5t-128 -45.5t-46 -113.5z" />
<glyph unicode="9" d="M84 856q0 213 134 352.5t376 139.5q244 0 376 -134.5t132 -343.5q0 -190 -115 -352l-418 -586l-229 166l231 312l-32 -2q-201 0 -328 131t-127 317zM383 866q0 -94 58.5 -155.5t152.5 -61.5q96 0 152.5 61.5t56.5 155.5q0 104 -52.5 168t-156.5 64q-100 0 -155.5 -63.5 t-55.5 -168.5z" />
<glyph unicode=":" horiz-adv-x="573" d="M123 141q0 68 48 116t114 48q68 0 116 -48t48 -116q0 -66 -48.5 -113.5t-115.5 -47.5q-66 0 -114 47.5t-48 113.5zM123 870q0 68 48 116t114 48q68 0 116 -48t48 -116q0 -66 -48.5 -113.5t-115.5 -47.5q-66 0 -114 47.5t-48 113.5z" />
<glyph unicode=";" horiz-adv-x="589" d="M82 -281l121 557h248l-195 -557h-174zM139 870q0 68 48.5 116t113.5 48q68 0 116 -48t48 -116q0 -66 -48 -113.5t-116 -47.5q-66 0 -114 47.5t-48 113.5z" />
<glyph unicode="&#x3c;" d="M115 496v159l958 406v-258l-590 -228l590 -227v-256z" />
<glyph unicode="=" d="M115 262v221h958v-221h-958zM115 668v221h958v-221h-958z" />
<glyph unicode="&#x3e;" d="M115 92v256l590 227l-590 228v258l958 -406v-159z" />
<glyph unicode="?" horiz-adv-x="972" d="M33 1073q49 131 158.5 203t257.5 72q201 0 321.5 -122t120.5 -302q0 -139 -86 -246t-221 -137l-25 -113h-237l-35 281q152 0 237.5 54t85.5 161q0 63 -49 110t-123 47q-127 0 -182 -110zM276 139.5q0 67.5 48.5 115.5t113.5 48q68 0 116 -48t48 -115.5t-48 -115 t-115.5 -47.5t-115 47.5t-47.5 115z" />
<glyph unicode="@" horiz-adv-x="1888" d="M143 502q0 334 240 569.5t578 235.5q324 0 554 -201t230 -510q0 -225 -93 -360.5t-241 -135.5q-154 0 -209 133q-98 -152 -307 -151q-147 0 -262 124t-115 294q0 168 115 290.5t262 122.5q84 0 141.5 -22.5t116.5 -79.5v84h190v-485q0 -55 18.5 -96.5t59.5 -41.5 q61 0 103.5 89.5t42.5 234.5q0 242 -165 393.5t-441 151.5q-256 0 -440.5 -187.5t-184.5 -451.5q0 -287 180 -457t438 -170q170 0 330 76l78 -150q-178 -90 -410 -90q-217 0 -399 92.5t-296 275.5t-114 423zM713 500q0 -100 66.5 -173t160.5 -73t153.5 66.5t59.5 179.5 q0 117 -58.5 179t-154.5 62t-161.5 -71.5t-65.5 -169.5z" />
<glyph unicode="A" horiz-adv-x="1460" d="M10 0l578 1327h284l578 -1327h-293l-92 211h-672l-90 -211h-293zM492 436h477l-107 244l-133 344q-70 -205 -131 -344z" />
<glyph unicode="B" horiz-adv-x="1390" d="M143 0v1327h621q180 0 297 -84t117 -262q0 -72 -37 -136.5t-94 -99.5q111 -29 181 -117.5t70 -209.5q0 -209 -137 -313.5t-366 -104.5h-652zM430 246h340q225 0 225 168q0 88 -59 131t-154 43h-352v-342zM430 831h309q139 0 140 123q0 127 -144 127h-305v-250z" />
<glyph unicode="C" horiz-adv-x="1288" d="M82 664q0 287 199.5 485.5t502.5 198.5q252 0 439 -144l-166 -194q-105 77 -248 77h-4q-188 0 -306 -123.5t-118 -300t115.5 -301t289.5 -124.5q178 0 297 106l174 -197q-193 -170 -473 -170q-303 0 -502.5 199t-199.5 488z" />
<glyph unicode="D" horiz-adv-x="1466" d="M143 0v1327h531q319 0 514.5 -191.5t195.5 -472t-195.5 -472t-514.5 -191.5h-531zM430 246h236q188 0 303.5 117.5t115.5 300t-115.5 300t-303.5 117.5h-236v-835z" />
<glyph unicode="E" horiz-adv-x="1277" d="M143 0v1327h1047v-246h-760v-270h721v-244h-721v-321h787v-246h-1074z" />
<glyph unicode="F" horiz-adv-x="1155" d="M143 0v1327h992v-246h-705v-270h602v-244h-602v-567h-287z" />
<glyph unicode="G" horiz-adv-x="1478" d="M82 664q0 287 199.5 485.5t502.5 198.5q252 0 449 -150l-168 -197q-113 86 -279 86q-174 0 -289.5 -124.5t-115.5 -298.5q0 -176 115.5 -300t289.5 -124q176 0 293 129v196h-211v238h488v-545q-88 -131 -239.5 -204.5t-332.5 -73.5q-303 0 -502.5 197.5t-199.5 486.5z " />
<glyph unicode="H" horiz-adv-x="1427" d="M143 0v1327h287v-518h567v518h287v-1327h-287v563h-567v-563h-287z" />
<glyph unicode="I" horiz-adv-x="573" d="M143 0v1327h287v-1327h-287z" />
<glyph unicode="J" horiz-adv-x="1191" d="M41 262l207 160q102 -182 274 -182q119 0 190.5 73.5t71.5 223.5v790h285v-774q0 -293 -150.5 -433t-390.5 -140q-162 0 -293 72.5t-194 209.5z" />
<glyph unicode="K" horiz-adv-x="1382" d="M143 0v1327h285v-739l156 215l383 524h338l-463 -625l520 -702h-338l-362 502l-234 -297v-205h-285z" />
<glyph unicode="L" horiz-adv-x="1257" d="M143 0v1327h287v-1081h766v-246h-1053z" />
<glyph unicode="M" horiz-adv-x="1677" d="M143 0v1327h248l203 -280l246 -355l243 352l203 283h248v-1327h-287v836q-33 -66 -127 -203l-280 -412l-285 416l-125 197v-834h-287z" />
<glyph unicode="N" horiz-adv-x="1460" d="M143 0v1327h299l363 -530q43 -63 99.5 -152.5t90.5 -146.5l35 -58v887h287v-1327h-303l-338 494q-55 80 -116.5 176t-96.5 153l-33 56v-879h-287z" />
<glyph unicode="O" horiz-adv-x="1568" d="M82 664q0 287 199.5 485.5t502.5 198.5t503 -199t200 -485q0 -289 -200 -488t-503 -199t-502.5 199t-199.5 488zM381 664q0 -176 115.5 -301t289.5 -125q172 0 287 124.5t115 301.5q0 174 -115 298.5t-287 124.5q-174 0 -289.5 -124.5t-115.5 -298.5z" />
<glyph unicode="P" horiz-adv-x="1402" d="M143 0v1327h568q283 0 438.5 -144.5t155.5 -367.5t-156 -367.5t-440 -144.5h-279v-303h-287zM430 549h295q129 0 205 75.5t76 190.5t-76 190.5t-203 75.5h-297v-532z" />
<glyph unicode="Q" horiz-adv-x="1568" d="M82 664q0 287 199.5 485.5t502.5 198.5t503 -199t200 -485q0 -231 -131 -410l92 -90l-182 -182l-101 98q-166 -102 -381 -103q-303 0 -502.5 199t-199.5 488zM381 664q0 -176 115.5 -301t289.5 -125q98 0 179 43l-174 174l182 182l170 -170q45 94 45 197 q0 174 -115 298.5t-287 124.5q-174 0 -289.5 -124.5t-115.5 -298.5z" />
<glyph unicode="R" horiz-adv-x="1402" d="M143 0v1327h568q283 0 438.5 -144.5t155.5 -367.5q0 -135 -65.5 -247.5t-184.5 -182.5l276 -385h-350l-205 307q-68 -4 -192 -4h-154v-303h-287zM430 549h293q129 0 206 75.5t77 190.5t-76 190.5t-205 75.5h-295v-532z" />
<glyph unicode="S" horiz-adv-x="1249" d="M82 160l102 221q205 -147 439 -148q104 0 180 46.5t76 113.5q0 66 -64.5 100.5t-181.5 59.5q-86 20 -148.5 37.5t-134 51.5t-117 75t-76 104.5t-30.5 143.5q0 182 145.5 282.5t350.5 100.5q272 0 485 -142l-104 -221q-176 109 -381 109q-74 0 -140.5 -29t-66.5 -98 q0 -59 59.5 -91t186.5 -59q505 -113 505 -423q0 -202 -162.5 -308t-383.5 -106q-322 0 -539 180z" />
<glyph unicode="T" horiz-adv-x="1269" d="M41 1081v246h1188v-246h-451v-1081h-286v1081h-451z" />
<glyph unicode="U" horiz-adv-x="1384" d="M123 522v805h283v-792q0 -129 82.5 -212t203.5 -83t203 83t82 212v792h285v-805q0 -240 -165 -391t-404.5 -151t-404.5 150.5t-165 391.5z" />
<glyph unicode="V" horiz-adv-x="1370" d="M20 1327h293l262 -672l109 -331q70 227 111 331l262 672h293l-516 -1327h-297z" />
<glyph unicode="W" horiz-adv-x="1933" d="M20 1327h289l211 -713l70 -249l59 249l162 713h311l162 -713l59 -249q33 127 70 251l213 711h287l-408 -1327h-315l-166 666l-57 301q-27 -172 -58 -301l-166 -666h-315z" />
<glyph unicode="X" horiz-adv-x="1288" d="M20 0l461 664l-448 663h327l140 -203l143 -239l150 239l135 203h327l-450 -663l463 -664h-334l-146 221l-145 221l-145 -225l-146 -217h-332z" />
<glyph unicode="Y" horiz-adv-x="1323" d="M20 1327h330l152 -221l162 -258l163 258l146 221h330l-496 -723v-604h-287v600z" />
<glyph unicode="Z" horiz-adv-x="1232" d="M61 0v213l584 709q39 47 76 87t55 56l19 16h-701v246h1059v-215l-557 -672l-170 -194h745v-246h-1110z" />
<glyph unicode="[" horiz-adv-x="675" d="M113 -203v1624h481v-184h-207v-1255h207v-185h-481z" />
<glyph unicode="\" horiz-adv-x="1259" d="M-12 1419h252l1017 -1458h-253z" />
<glyph unicode="]" horiz-adv-x="675" d="M82 -18h207v1255h-207v184h481v-1624h-481v185z" />
<glyph unicode="^" d="M109 614l405 713h160l403 -713h-248l-235 383l-236 -383h-249z" />
<glyph unicode="_" horiz-adv-x="1007" d="M-6 -162h1020v-143h-1020v143z" />
<glyph unicode="`" horiz-adv-x="819" d="M201 1487h274l193 -324h-240z" />
<glyph unicode="a" horiz-adv-x="1249" d="M72 512q0 225 131 378.5t342 153.5q190 0 307 -155v135h274v-1024h-274v133q-116 -153 -305 -153h-2q-211 0 -342 153.5t-131 378.5zM365 512q0 -119 68.5 -192.5t176.5 -73.5q106 0 174 73.5t68 192.5t-67.5 192.5t-174.5 73.5q-109 0 -177 -73.5t-68 -192.5z" />
<glyph unicode="b" horiz-adv-x="1234" d="M123 0v1348h274v-459q110 155 291 155h2q211 0 342 -153.5t131 -378.5t-131 -378.5t-342 -153.5q-182 0 -293 153v-133h-274zM397 512q0 -119 67.5 -192.5t174.5 -73.5q109 0 177.5 73.5t68.5 192.5t-68.5 192.5t-177.5 73.5q-106 0 -174 -73.5t-68 -192.5z" />
<glyph unicode="c" horiz-adv-x="1034" d="M72 512q0 221 160.5 376.5t385.5 155.5q211 0 365 -124l-168 -199q-66 57 -190 57q-117 0 -196 -75.5t-79 -190.5q0 -113 78 -189.5t205 -76.5q141 0 221 69l150 -211q-161 -124 -382 -124h-4q-227 0 -386.5 155.5t-159.5 376.5z" />
<glyph unicode="d" horiz-adv-x="1234" d="M72 512q0 225 131 378.5t342 153.5q182 0 293 -155v459h274v-1348h-274v133q-110 -153 -291 -153h-2q-211 0 -342 153.5t-131 378.5zM350 512q0 -119 68.5 -192.5t177.5 -73.5q106 0 174 73.5t68 192.5t-68 192.5t-174 73.5q-109 0 -177.5 -73.5t-68.5 -192.5z" />
<glyph unicode="e" horiz-adv-x="1173" d="M72 510q0 223 153.5 378.5t380.5 155.5q205 0 350.5 -154.5t145.5 -369.5l-8 -102h-738q51 -197 281 -197q160 0 281 70l102 -207q-180 -104 -387 -104q-236 0 -398.5 140t-162.5 390zM352 616h482q-16 88 -84 139.5t-160 51.5q-80 0 -145.5 -51.5t-92.5 -139.5z" />
<glyph unicode="f" horiz-adv-x="679" d="M-16 803v221h161v70q0 76 24 137t58.5 97t79.5 59.5t85 33t75 9.5q92 0 161.5 -20.5t94.5 -41.5l25 -20l-105 -189q-76 43 -127 43q-96 0 -96 -121v-57h254v-221h-256v-803h-275v803h-159z" />
<glyph unicode="g" horiz-adv-x="1234" d="M72 563q0 205 131 343t342 138q180 0 293 -139v119h274v-793q0 -244 -154.5 -388t-388.5 -144q-262 0 -426 131l115 182q123 -98 297 -98q104 0 193.5 65.5t89.5 184.5v37q-113 -137 -293 -138q-211 0 -342 143.5t-131 356.5zM350 537q0 -106 64.5 -174t167.5 -68 q104 0 167.5 67.5t63.5 174.5q0 113 -63.5 183.5t-167.5 70.5q-102 0 -167 -70.5t-65 -183.5z" />
<glyph unicode="h" horiz-adv-x="1181" d="M123 0v1348h274v-457q112 153 315 153h3q199 0 281.5 -125.5t82.5 -355.5v-563h-274v532q0 129 -38 187.5t-149 58.5q-104 0 -162.5 -72.5t-58.5 -193.5v-512h-274z" />
<glyph unicode="i" horiz-adv-x="520" d="M98 1288q0 68 48.5 116t113.5 48q68 0 116 -48t48 -116q0 -66 -48 -114t-116 -48q-66 0 -114 48t-48 114zM123 0v1024h274v-1024h-274z" />
<glyph unicode="j" horiz-adv-x="520" d="M-47 -174q170 90 170 332v866h274v-825q0 -217 -87 -353.5t-261 -218.5zM98 1288q0 68 48.5 116t113.5 48q68 0 116 -48t48 -116q0 -66 -48 -114t-116 -48q-66 0 -114 48t-48 114z" />
<glyph unicode="k" horiz-adv-x="1163" d="M123 0v1348h274v-748l342 424h338l-403 -459l479 -565h-330l-313 375l-113 -139v-236h-274z" />
<glyph unicode="l" horiz-adv-x="520" d="M123 0v1348h274v-1348h-274z" />
<glyph unicode="m" horiz-adv-x="1822" d="M123 0v1024h274v-141q37 63 118 112t167 49q233 0 319 -186q47 82 141.5 134t180.5 52q397 0 397 -479v-565h-274v532q0 55 -6 92.5t-23.5 76t-56.5 58t-100 19.5q-98 0 -149.5 -66.5t-51.5 -160.5v-551h-275v532q0 55 -6 92.5t-23.5 76t-56.5 58t-100 19.5 q-102 0 -151.5 -71.5t-49.5 -171.5v-535h-274z" />
<glyph unicode="n" horiz-adv-x="1183" d="M123 0v1024h274v-133q116 153 317 153h3q205 0 284.5 -123.5t79.5 -357.5v-563h-276v532q0 133 -33 189.5t-143 56.5q-104 0 -168 -73.5t-64 -192.5v-512h-274z" />
<glyph unicode="o" horiz-adv-x="1236" d="M72 512q0 221 160.5 376.5t386 155.5t386 -155.5t160.5 -376.5t-160.5 -376.5t-386 -155.5t-386 155.5t-160.5 376.5zM350 512q0 -111 79 -188.5t189.5 -77.5t189.5 77.5t79 188.5t-79 188.5t-189.5 77.5t-189.5 -77.5t-79 -188.5z" />
<glyph unicode="p" horiz-adv-x="1234" d="M123 -281v1305h274v-135q110 155 291 155h2q211 0 342 -153.5t131 -378.5t-131 -378.5t-342 -153.5q-182 0 -293 153v-414h-274zM397 512q0 -119 67.5 -192.5t174.5 -73.5q109 0 177.5 73.5t68.5 192.5t-68.5 192.5t-177.5 73.5q-106 0 -174 -73.5t-68 -192.5z" />
<glyph unicode="q" horiz-adv-x="1234" d="M72 512q0 225 131 378.5t342 153.5q182 0 293 -155v135h274v-1305h-274v414q-110 -153 -291 -153h-2q-211 0 -342 153.5t-131 378.5zM350 512q0 -119 68.5 -192.5t177.5 -73.5q106 0 174 73.5t68 192.5t-68 192.5t-174 73.5q-109 0 -177.5 -73.5t-68.5 -192.5z" />
<glyph unicode="r" horiz-adv-x="794" d="M123 0v1024h274v-190q29 80 117 145t240 65v-299q-180 0 -268.5 -85t-88.5 -267v-393h-274z" />
<glyph unicode="s" horiz-adv-x="1009" d="M72 123l96 201q168 -113 321 -113q63 0 119 24.5t56 75.5q0 59 -183 101q-174 41 -266 108.5t-92 206.5q0 147 122 232t275 85q184 0 377 -98l-96 -201q-133 68 -281 68q-47 0 -85 -22.5t-38 -59.5q0 -55 144 -84q82 -16 145.5 -38.5t124.5 -60.5t94 -96.5t33 -136.5 q0 -90 -43 -158.5t-112.5 -105.5t-143.5 -54t-150 -17q-102 0 -198 29.5t-143 58t-76 55.5z" />
<glyph unicode="t" horiz-adv-x="776" d="M20 803v221h150v186l274 62v-248h283v-221h-281v-479q0 -106 86 -107q33 0 67 11.5t52 21.5l17 12l77 -207q-117 -75 -248 -75h-3q-168 0 -245 89t-77 263v471h-152z" />
<glyph unicode="u" horiz-adv-x="1183" d="M102 444v580h277v-532q0 -125 41 -185.5t145 -60.5q221 0 221 278v500h275v-1024h-275v133q-116 -153 -305 -153h-2q-88 0 -155.5 27.5t-108.5 71.5t-66.5 106.5t-36 124.5t-10.5 134z" />
<glyph unicode="v" horiz-adv-x="1097" d="M10 1024h275l161 -426q27 -72 52.5 -152.5t38.5 -126.5l12 -45q45 164 104 324l160 426h274l-403 -1024h-270z" />
<glyph unicode="w" horiz-adv-x="1503" d="M10 1024h269l149 -489q12 -41 22.5 -96.5t14.5 -90.5l4 -35q12 127 33 217l114 494h271l114 -494q8 -39 16.5 -93t12.5 -89l4 -35q14 129 41 222l150 489h268l-328 -1024h-250l-127 492q-10 39 -19 94t-13 90l-4 35q-14 -133 -37 -219l-127 -492h-250z" />
<glyph unicode="x" horiz-adv-x="1060" d="M20 0l338 522l-338 502h306l133 -209l71 -121q41 74 72 121l133 209h305l-338 -502l338 -522h-305l-123 195l-82 149q-39 -82 -81 -149l-123 -195h-306z" />
<glyph unicode="y" horiz-adv-x="1097" d="M10 1024h281l207 -479l63 -164q45 127 64 174l184 469h278l-460 -1067q-113 -258 -424 -258v258q90 0 137 31.5t76 95.5l18 39z" />
<glyph unicode="z" horiz-adv-x="925" d="M41 0v199l328 415l153 168h-463v242h809v-197l-323 -399l-166 -186h506v-242h-844z" />
<glyph unicode="{" horiz-adv-x="897" d="M113 508v194h49q119 0 119 146v129q0 457 362 457h172v-205q-63 0 -96 -3t-71 -15.5t-54 -38t-27.5 -72.5t-11.5 -119v-127q0 -76 -46 -157t-153 -93q111 -18 155 -90t44 -158v-127q0 -72 11.5 -119t27.5 -72.5t54 -37.5t71 -15t96 -3v-205h-172q-362 0 -362 456v129 q0 145 -119 146h-49z" />
<glyph unicode="|" horiz-adv-x="516" d="M154 -387v1898h204v-1898h-204z" />
<glyph unicode="}" horiz-adv-x="897" d="M82 -18q63 0 96 3t71 15t54 37.5t27.5 73t11.5 118.5v127q0 86 44 158t155 90q-106 12 -152.5 93t-46.5 157v127q0 72 -11.5 119t-27.5 72.5t-54 38t-71 15.5t-96 3v205h172q362 0 362 -457v-129q0 -145 119 -146h49v-194h-49q-119 0 -119 -146v-129q0 -457 -362 -456 h-172v205z" />
<glyph unicode="~" horiz-adv-x="1146" d="M119 453q0 180 68.5 263t209.5 83q72 0 173.5 -49.5t127.5 -49.5q59 0 60 80h270q0 -180 -68.5 -263t-209.5 -83q-72 0 -173.5 49t-127.5 49q-59 0 -60 -79h-270z" />
<glyph unicode="&#xa1;" horiz-adv-x="550" d="M113 881q0 68 48 115.5t113 47.5q68 0 116 -48t48 -115q0 -66 -48 -114t-116 -48q-66 0 -113.5 48t-47.5 114zM137 -348l21 899h233l21 -899h-275z" />
<glyph unicode="&#xa2;" d="M147 655q0 203 135.5 351.5t323.5 175.5v225h197v-229q133 -18 256 -115l-168 -199q-74 57 -190.5 57.5t-195.5 -75.5t-79 -191q0 -113 78 -189.5t205 -76.5q141 0 221 70l149 -213q-117 -86 -276 -115v-229h-197v227q-188 27 -323.5 174.5t-135.5 351.5z" />
<glyph unicode="&#xa3;" d="M119 0v221h141v346h-137v183h137v157q0 213 123 327t311 114q213 0 350 -119l-149 -195q-98 70 -195 70q-74 0 -119.5 -46t-45.5 -136v-172h329v-183h-329v-325h534v-242h-950z" />
<glyph unicode="&#xa4;" d="M102 207l158 158q-70 94 -70 217q0 121 72 219l-160 162l115 112l164 -166q96 57 213 58q113 0 211 -60l168 168l112 -114l-161 -162q72 -98 71 -217q0 -117 -69 -217l159 -160l-114 -113l-164 164q-94 -59 -213 -59q-121 0 -215 59l-164 -164zM436 581.5 q0 -67.5 46 -113.5t111.5 -46t111 46t45.5 113.5t-45.5 113.5t-111 46t-111.5 -46t-46 -113.5z" />
<glyph unicode="&#xa5;" d="M47 1327h322l153 -283q14 -27 32.5 -69.5t29.5 -73.5l10 -29q39 111 72 172l153 283h322l-410 -672v-14h236v-162h-236v-98h234v-162h-234v-219h-274v219h-234v162h234v98h-232v162h232v14z" />
<glyph unicode="&#xa6;" horiz-adv-x="475" d="M135 -389v985h205v-985h-205zM135 786v861h205v-861h-205z" />
<glyph unicode="&#xa7;" horiz-adv-x="1105" d="M82 729q0 55 25.5 110.5t70.5 88.5q-37 49 -37 123q0 143 122 220t290 77q213 0 401 -103l-94 -205q-176 70 -309 70q-53 0 -92 -15.5t-39 -41.5q0 -8 3 -14.5t10 -11.5t13.5 -9t19.5 -8t21.5 -7.5t26.5 -7.5t29 -8l192 -59q289 -88 289 -353q0 -121 -102 -196 q43 -47 43 -125q0 -141 -123 -219t-289 -78q-111 0 -211 30.5t-146 59t-77 55.5l96 207q164 -115 340 -114q53 0 92 15t39 42q0 12 -5 20.5t-17.5 13.5t-24.5 9t-34.5 9t-39.5 11l-207 66q-152 47 -214 132t-62 216zM336 741q0 -57 39 -87.5t108 -55.5l115 -43 q8 -4 42 -17.5t54.5 -20.5t36.5 -7q37 0 37 63q0 84 -109 127l-227 91q-41 14 -59 14q-37 0 -37 -64z" />
<glyph unicode="&#xa8;" horiz-adv-x="819" d="M82 1296.5q0 53.5 39 92t92 38.5t92 -38.5t39 -92t-39 -92.5t-92 -39t-92 39t-39 92.5zM475 1296.5q0 53.5 39 92t92 38.5t92 -38.5t39 -92t-39 -92.5t-92 -39t-92 39t-39 92.5z" />
<glyph unicode="&#xa9;" horiz-adv-x="1531" d="M82 663.5q0 282.5 201.5 483.5t482.5 201q283 0 483.5 -201t200.5 -483.5t-200.5 -483t-483.5 -200.5q-281 0 -482.5 200.5t-201.5 483zM203 663.5q0 -233.5 166 -401.5t397 -168q233 0 399 168t166 401.5t-166 402.5t-399 169q-231 0 -397 -169t-166 -402.5zM369 662 q0 172 120.5 293.5t292.5 121.5q164 0 297 -127l-78 -80q-98 92 -216.5 92.5t-205.5 -84.5t-87 -216.5t89 -216.5t207 -85q131 0 240 123l78 -82q-139 -154 -324 -153q-172 0 -292.5 122t-120.5 292z" />
<glyph unicode="&#xaa;" horiz-adv-x="774" d="M41 879q0 125 107.5 186t254.5 61q47 0 70 -2q-23 66 -115 66q-43 0 -88 -11.5t-69 -23.5l-23 -10l-67 145q98 76 274 76q147 0 227 -84t80 -252v-352h-200v63q-88 -78 -228 -77q-100 0 -161.5 61.5t-61.5 153.5zM242 897q0 -27 23.5 -41t53.5 -14q84 0 128.5 38t44.5 74 v21q-78 4 -89 4q-63 0 -112 -22.5t-49 -59.5z" />
<glyph unicode="&#xab;" horiz-adv-x="1062" d="M55 444v109l363 358l121 -120l-248 -291l248 -293l-121 -121zM518 444v109l363 358l120 -120l-247 -291l247 -293l-120 -121z" />
<glyph unicode="&#xac;" d="M115 551v221h958v-553h-239v332h-719z" />
<glyph unicode="&#xad;" horiz-adv-x="985" d="M61 393v221h863v-221h-863z" />
<glyph unicode="&#xae;" horiz-adv-x="1531" d="M82 663.5q0 282.5 201.5 483.5t482.5 201q283 0 483.5 -201t200.5 -483.5t-200.5 -483t-483.5 -200.5q-281 0 -482.5 200.5t-201.5 483zM203 663.5q0 -233.5 166 -401.5t397 -168q233 0 399 168t166 401.5t-166 402.5t-399 169q-231 0 -397 -169t-166 -402.5zM457 256 v811h346q137 0 234.5 -96.5t97.5 -233.5q0 -184 -148 -280l152 -201h-152l-115 156q-33 -6 -69 -6h-228v-150h-118zM575 526h228q88 0 148.5 61.5t60.5 149.5q0 86 -61.5 149.5t-147.5 63.5h-228v-424z" />
<glyph unicode="&#xaf;" horiz-adv-x="819" d="M168 1155v195h483v-195h-483z" />
<glyph unicode="&#xb0;" horiz-adv-x="794" d="M49 1010q0 143 102.5 246.5t243.5 103.5q143 0 246.5 -103.5t103.5 -246.5q0 -139 -103 -242.5t-247 -103.5q-141 0 -243.5 103.5t-102.5 242.5zM242 1010q0 -66 45 -115t108 -49q66 0 111 48t45 116q0 70 -45 118t-111 48q-63 0 -108 -48t-45 -118z" />
<glyph unicode="&#xb1;" d="M115 53v221h958v-221h-958zM115 668v221h358v282h242v-282h358v-221h-358v-277h-242v277h-358z" />
<glyph unicode="&#xb2;" horiz-adv-x="839" d="M80 592v141q240 225 327 333t87 183q0 106 -123 107q-94 0 -178 -105l-111 148q66 76 137.5 114.5t173.5 38.5q150 0 241 -78.5t91 -205.5q0 -219 -330 -484h359v-192h-674z" />
<glyph unicode="&#xb3;" horiz-adv-x="901" d="M92 705l103 153q96 -84 217 -84q92 0 137 42t45 102q0 57 -44 95t-136 38q-70 0 -140 -47l-75 126l266 216h-336v194h639v-168l-219 -180q102 -4 189 -82t87 -203q0 -141 -106.5 -234t-292.5 -93q-199 0 -334 125z" />
<glyph unicode="&#xb4;" horiz-adv-x="819" d="M150 1163l192 324h274l-227 -324h-239z" />
<glyph unicode="&#xb5;" horiz-adv-x="1189" d="M123 -281v1305h274v-537q0 -137 42 -188t116 -51q90 0 159.5 75.5t69.5 254.5v446h275v-461q0 -303 141 -450l-168 -187l-20 17q-18 16 -29.5 25t-32 30.5t-33 38t-25.5 40t-18 46.5q-109 -141 -317 -141q-98 0 -160 53v-316h-274z" />
<glyph unicode="&#xb6;" horiz-adv-x="1208" d="M102 926q0 166 126 283.5t302 117.5h512v-1327h-184v1147h-143v-1147h-185v526q-186 14 -307 118t-121 282z" />
<glyph unicode="&#xb7;" horiz-adv-x="407" d="M41 587.5q0 67.5 48 116t114 48.5q68 0 116 -48.5t48 -116t-48.5 -114.5t-116 -47t-114.5 47t-47 114.5z" />
<glyph unicode="&#xb8;" horiz-adv-x="819" d="M145 -387l64 106q90 -47 164 -47q49 0 80.5 28t31.5 60q0 25 -18 38.5t-45 13.5q-55 0 -78 -56l-135 43l123 207h157l-55 -96q37 6 41 6q82 0 129 -45t47 -109q0 -84 -72.5 -147.5t-201.5 -63.5q-146 1 -232 62z" />
<glyph unicode="&#xb9;" horiz-adv-x="757" d="M76 1284l325 256h166v-948h-217v672l-184 -125z" />
<glyph unicode="&#xba;" horiz-adv-x="800" d="M41 1014q0 147 105.5 249.5t252.5 102.5q152 0 256.5 -102.5t104.5 -249.5q0 -145 -105.5 -247.5t-255.5 -102.5q-147 0 -252.5 103.5t-105.5 246.5zM244 1013.5q0 -63.5 46 -108.5t109.5 -45t109.5 45t46 108.5t-46 109.5t-109.5 46t-109.5 -46t-46 -109.5z" />
<glyph unicode="&#xbb;" horiz-adv-x="1062" d="M61 207l248 293l-248 291l121 120l363 -358v-109l-363 -358zM524 207l248 293l-248 291l121 120l363 -358v-109l-363 -358z" />
<glyph unicode="&#xbc;" horiz-adv-x="2088" d="M76 1079l325 256h166v-948h-217v672l-184 -125zM569 53l811 1348l129 -74l-811 -1347zM1167 193v141l365 629l188 -86l-297 -488h191v168h217v-168h106v-196h-106v-193h-217v193h-447z" />
<glyph unicode="&#xbd;" horiz-adv-x="2209" d="M76 1079l325 256h166v-948h-217v672l-184 -125zM569 53l811 1348l129 -74l-811 -1347zM1370 0v141q240 225 327 333t87 183q0 106 -123 107q-94 0 -178 -105l-111 148q66 76 137.5 115t173.5 39q150 0 241 -79t91 -206q0 -219 -329 -483h358v-193h-674z" />
<glyph unicode="&#xbe;" horiz-adv-x="2156" d="M92 500l103 153q96 -84 217 -84q92 0 137 42t45 102q0 57 -44 95t-136 38q-70 0 -140 -47l-75 127l266 215h-336v194h639v-168l-219 -180q102 -4 189 -82t87 -203q0 -141 -106.5 -234t-292.5 -93q-199 0 -334 125zM692 53l811 1348l129 -74l-811 -1347zM1294 193v141 l365 629l188 -86l-297 -488h191v168h217v-168h106v-196h-106v-193h-217v193h-447z" />
<glyph unicode="&#xbf;" horiz-adv-x="972" d="M82 98q0 139 86 246t221 137l25 113h237l35 -281q-152 0 -238 -54t-86 -161q0 -63 50.5 -110t122.5 -47q127 0 182 110l223 -102q-49 -131 -158.5 -203t-257.5 -72q-201 0 -321.5 122t-120.5 302zM371 882.5q0 67.5 48 114.5t115.5 47t114.5 -47t47 -114.5t-48 -115.5 t-113 -48q-68 0 -116 48t-48 115.5z" />
<glyph unicode="&#xc0;" horiz-adv-x="1460" d="M10 0l578 1327h284l578 -1327h-293l-92 211h-672l-90 -211h-293zM385 1735h274l193 -324h-240zM492 436h477l-107 244l-133 344q-70 -205 -131 -344z" />
<glyph unicode="&#xc1;" horiz-adv-x="1460" d="M10 0l578 1327h284l578 -1327h-293l-92 211h-672l-90 -211h-293zM492 436h477l-107 244l-133 344q-70 -205 -131 -344zM608 1411l193 324h274l-227 -324h-240z" />
<glyph unicode="&#xc2;" horiz-adv-x="1460" d="M10 0l578 1327h284l578 -1327h-293l-92 211h-672l-90 -211h-293zM365 1411l229 324h272l230 -324h-203l-164 191l-162 -191h-202zM492 436h477l-107 244l-133 344q-70 -205 -131 -344z" />
<glyph unicode="&#xc3;" horiz-adv-x="1460" d="M10 0l578 1327h284l578 -1327h-293l-92 211h-672l-90 -211h-293zM389 1403q0 123 51.5 196.5t132.5 73.5q76 0 170.5 -54t112.5 -54q68 0 68 108h145q0 -123 -51 -196.5t-133 -73.5q-76 0 -170 54t-113 54q-68 0 -67 -108h-146zM492 436h477l-107 244l-133 344 q-70 -205 -131 -344z" />
<glyph unicode="&#xc4;" horiz-adv-x="1460" d="M10 0l578 1327h284l578 -1327h-293l-92 211h-672l-90 -211h-293zM401 1534q0 53 39 92t92.5 39t92.5 -39t39 -92t-39 -92t-92.5 -39t-92.5 39t-39 92zM492 436h477l-107 244l-133 344q-70 -205 -131 -344zM795 1534q0 53 38.5 92t92 39t92.5 -39t39 -92t-39 -92 t-92.5 -39t-92 39t-38.5 92z" />
<glyph unicode="&#xc5;" horiz-adv-x="1460" d="M10 0l578 1327h284l578 -1327h-293l-92 211h-672l-90 -211h-293zM492 436h477l-107 244l-133 344q-70 -205 -131 -344zM506 1595.5q0 92.5 65.5 158t157.5 65.5t157.5 -65.5t65.5 -158t-65.5 -158t-157.5 -65.5t-157.5 65.5t-65.5 158zM635 1595q0 -41 27.5 -71.5 t66.5 -30.5t67.5 30.5t28.5 71.5t-28.5 72t-67.5 31t-66.5 -31t-27.5 -72z" />
<glyph unicode="&#xc6;" horiz-adv-x="2015" d="M10 0l817 1327h1098v-246h-686v-270h645v-244h-645v-321h715v-246h-1004v211h-493l-129 -211h-318zM594 436h356v649q-43 -90 -110 -211z" />
<glyph unicode="&#xc7;" horiz-adv-x="1288" d="M82 664q0 287 199.5 485.5t502.5 198.5q252 0 439 -144l-166 -194q-106 78 -252 77q-188 0 -306 -123.5t-118 -300t115.5 -301t289.5 -124.5q178 0 297 106l174 -197q-174 -156 -436 -167l-39 -70q37 6 41 6q82 0 129 -45t47 -109q0 -84 -72.5 -147.5t-201.5 -63.5 q-145 1 -231 62l63 106q90 -47 164 -47q49 0 81 28t32 60q0 25 -18.5 38.5t-45.5 13.5q-55 0 -78 -56l-135 43l111 189q-260 37 -423 226t-163 450z" />
<glyph unicode="&#xc8;" horiz-adv-x="1277" d="M143 0v1327h1047v-246h-760v-270h721v-244h-721v-321h787v-246h-1074zM399 1735h275l192 -324h-239z" />
<glyph unicode="&#xc9;" horiz-adv-x="1277" d="M143 0v1327h1047v-246h-760v-270h721v-244h-721v-321h787v-246h-1074zM506 1411l192 324h275l-228 -324h-239z" />
<glyph unicode="&#xca;" horiz-adv-x="1277" d="M143 0v1327h1047v-246h-760v-270h721v-244h-721v-321h787v-246h-1074zM322 1411l229 324h272l230 -324h-203l-164 191l-162 -191h-202z" />
<glyph unicode="&#xcb;" horiz-adv-x="1277" d="M143 0v1327h1047v-246h-760v-270h721v-244h-721v-321h787v-246h-1074zM360 1534q0 53 39 92t92.5 39t92.5 -39t39 -92t-39 -92t-92.5 -39t-92.5 39t-39 92zM754 1534q0 53 38.5 92t92 39t92.5 -39t39 -92t-39 -92t-92.5 -39t-92 39t-38.5 92z" />
<glyph unicode="&#xcc;" horiz-adv-x="573" d="M-37 1735h275l192 -324h-240zM143 0v1327h287v-1327h-287z" />
<glyph unicode="&#xcd;" horiz-adv-x="573" d="M143 0v1327h287v-1327h-287zM143 1411l193 324h274l-227 -324h-240z" />
<glyph unicode="&#xce;" horiz-adv-x="573" d="M-78 1411l230 324h272l229 -324h-202l-164 191l-162 -191h-203zM143 0v1327h287v-1327h-287z" />
<glyph unicode="&#xcf;" horiz-adv-x="573" d="M-41 1534q0 53 39 92t92 39t92 -39t39 -92t-39 -92t-92 -39t-92 39t-39 92zM143 0v1327h287v-1327h-287zM352 1534q0 53 39 92t92.5 39t92 -39t38.5 -92t-38.5 -92t-92 -39t-92.5 39t-39 92z" />
<glyph unicode="&#xd0;" horiz-adv-x="1466" d="M-20 582v202h163v543h531q319 0 514.5 -191.5t195.5 -472t-195.5 -472t-514.5 -191.5h-531v582h-163zM430 246h236q188 0 303.5 117.5t115.5 300t-115.5 300t-303.5 117.5h-236v-297h252v-202h-252v-336z" />
<glyph unicode="&#xd1;" horiz-adv-x="1460" d="M143 0v1327h299l363 -530q43 -63 99.5 -152.5t90.5 -146.5l35 -58v887h287v-1327h-303l-338 494q-55 80 -116.5 176t-96.5 153l-33 56v-879h-287zM391 1403q0 123 51.5 196.5t132.5 73.5q76 0 170.5 -54t112.5 -54q68 0 68 108h145q0 -123 -51 -196.5t-133 -73.5 q-76 0 -170 54t-113 54q-68 0 -67 -108h-146z" />
<glyph unicode="&#xd2;" horiz-adv-x="1568" d="M82 664q0 287 199.5 485.5t502.5 198.5t503 -199t200 -485q0 -289 -200 -488t-503 -199t-502.5 199t-199.5 488zM381 664q0 -176 115.5 -301t289.5 -125q172 0 287 124.5t115 301.5q0 174 -115 298.5t-287 124.5q-174 0 -289.5 -124.5t-115.5 -298.5zM455 1735h274 l193 -324h-240z" />
<glyph unicode="&#xd3;" horiz-adv-x="1568" d="M82 664q0 287 199.5 485.5t502.5 198.5t503 -199t200 -485q0 -289 -200 -488t-503 -199t-502.5 199t-199.5 488zM381 664q0 -176 115.5 -301t289.5 -125q172 0 287 124.5t115 301.5q0 174 -115 298.5t-287 124.5q-174 0 -289.5 -124.5t-115.5 -298.5zM647 1411l193 324 h274l-227 -324h-240z" />
<glyph unicode="&#xd4;" horiz-adv-x="1568" d="M82 664q0 287 199.5 485.5t502.5 198.5t503 -199t200 -485q0 -289 -200 -488t-503 -199t-502.5 199t-199.5 488zM381 664q0 -176 115.5 -301t289.5 -125q172 0 287 124.5t115 301.5q0 174 -115 298.5t-287 124.5q-174 0 -289.5 -124.5t-115.5 -298.5zM418 1411l229 324 h273l229 -324h-203l-164 191l-161 -191h-203z" />
<glyph unicode="&#xd5;" horiz-adv-x="1568" d="M82 664q0 287 199.5 485.5t502.5 198.5t503 -199t200 -485q0 -289 -200 -488t-503 -199t-502.5 199t-199.5 488zM381 664q0 -176 115.5 -301t289.5 -125q172 0 287 124.5t115 301.5q0 174 -115 298.5t-287 124.5q-174 0 -289.5 -124.5t-115.5 -298.5zM444 1403 q0 123 51.5 196.5t133.5 73.5q76 0 170 -54t112 -54q68 0 68 108h145q0 -123 -51 -196.5t-133 -73.5q-76 0 -170 54t-113 54q-68 0 -67 -108h-146z" />
<glyph unicode="&#xd6;" horiz-adv-x="1568" d="M82 664q0 287 199.5 485.5t502.5 198.5t503 -199t200 -485q0 -289 -200 -488t-503 -199t-502.5 199t-199.5 488zM381 664q0 -176 115.5 -301t289.5 -125q172 0 287 124.5t115 301.5q0 174 -115 298.5t-287 124.5q-174 0 -289.5 -124.5t-115.5 -298.5zM457 1534 q0 53 39 92t92 39t92 -39t39 -92t-39 -92t-92 -39t-92 39t-39 92zM850 1534q0 53 39 92t92 39t92 -39t39 -92t-39 -92t-92 -39t-92 39t-39 92z" />
<glyph unicode="&#xd7;" d="M111 889l172 164l309 -310l313 310l172 -166l-315 -312l311 -309l-170 -168l-311 308l-307 -308l-170 168l311 309z" />
<glyph unicode="&#xd8;" horiz-adv-x="1568" d="M82 664q0 287 199.5 485.5t502.5 198.5q160 0 301 -62l113 187l107 -64l-111 -184q137 -94 215 -240.5t78 -320.5q0 -289 -200 -488t-503 -199q-160 0 -301 62l-110 -186l-107 63l109 182q-137 92 -215 241t-78 325zM381 664q0 -199 139 -326l426 715q-74 35 -160 34 q-174 0 -289.5 -124.5t-115.5 -298.5zM623 270q78 -33 163 -32q172 0 287 124.5t115 301.5q0 190 -137 321z" />
<glyph unicode="&#xd9;" horiz-adv-x="1384" d="M123 522v805h283v-792q0 -129 82.5 -212t203.5 -83t203 83t82 212v792h285v-805q0 -240 -165 -391t-404.5 -151t-404.5 150.5t-165 391.5zM373 1735h274l193 -324h-240z" />
<glyph unicode="&#xda;" horiz-adv-x="1384" d="M123 522v805h283v-792q0 -129 82.5 -212t203.5 -83t203 83t82 212v792h285v-805q0 -240 -165 -391t-404.5 -151t-404.5 150.5t-165 391.5zM537 1411l192 324h275l-228 -324h-239z" />
<glyph unicode="&#xdb;" horiz-adv-x="1384" d="M123 522v805h283v-792q0 -129 82.5 -212t203.5 -83t203 83t82 212v792h285v-805q0 -240 -165 -391t-404.5 -151t-404.5 150.5t-165 391.5zM330 1411l229 324h272l230 -324h-203l-164 191l-162 -191h-202z" />
<glyph unicode="&#xdc;" horiz-adv-x="1384" d="M123 522v805h283v-792q0 -129 82.5 -212t203.5 -83t203 83t82 212v792h285v-805q0 -240 -165 -391t-404.5 -151t-404.5 150.5t-165 391.5zM367 1534q0 53 38.5 92t92 39t92.5 -39t39 -92t-39 -92t-92.5 -39t-92 39t-38.5 92zM760 1534q0 53 39 92t92 39t92 -39t39 -92 t-39 -92t-92 -39t-92 39t-39 92z" />
<glyph unicode="&#xdd;" horiz-adv-x="1323" d="M20 1327h330l152 -221l162 -258l163 258l146 221h330l-496 -723v-604h-287v600zM518 1411l193 324h274l-227 -324h-240z" />
<glyph unicode="&#xde;" horiz-adv-x="1220" d="M143 0v1327h287v-188h254q197 0 336 -136.5t139 -329t-139 -328.5t-336 -136h-254v-209h-287zM430 451h219q88 0 149.5 65.5t61.5 157.5t-61.5 157.5t-149.5 65.5h-219v-446z" />
<glyph unicode="&#xdf;" horiz-adv-x="1163" d="M143 0v897q0 221 108.5 336t291.5 115q172 0 293.5 -112t121.5 -269q0 -78 -18 -136.5t-39.5 -86t-58.5 -62.5q121 -29 195.5 -122t74.5 -218q0 -170 -110.5 -267.5t-276.5 -97.5q-123 0 -211 54l82 243q41 -31 92 -30q63 0 103 41t40 100q0 72 -61 116t-188 44h-41v205 h20q57 0 93 43t36 127q0 70 -38 115.5t-99 45.5q-59 0 -97 -49t-38 -121v-911h-275z" />
<glyph unicode="&#xe0;" horiz-adv-x="1249" d="M72 512q0 225 131 378.5t342 153.5q190 0 307 -155v135h274v-1024h-274v133q-117 -154 -307 -153q-211 0 -342 153.5t-131 378.5zM262 1487h275l192 -324h-240zM365 512q0 -119 68.5 -192.5t176.5 -73.5q106 0 174 73.5t68 192.5t-67.5 192.5t-174.5 73.5 q-109 0 -177 -73.5t-68 -192.5z" />
<glyph unicode="&#xe1;" horiz-adv-x="1249" d="M72 512q0 225 131 378.5t342 153.5q190 0 307 -155v135h274v-1024h-274v133q-117 -154 -307 -153q-211 0 -342 153.5t-131 378.5zM365 512q0 -119 68.5 -192.5t176.5 -73.5q106 0 174 73.5t68 192.5t-67.5 192.5t-174.5 73.5q-109 0 -177 -73.5t-68 -192.5zM393 1163 l193 324h274l-227 -324h-240z" />
<glyph unicode="&#xe2;" horiz-adv-x="1249" d="M72 512q0 225 131 378.5t342 153.5q190 0 307 -155v135h274v-1024h-274v133q-117 -154 -307 -153q-211 0 -342 153.5t-131 378.5zM252 1163l229 324h273l229 -324h-203l-164 191l-161 -191h-203zM365 512q0 -119 68.5 -192.5t176.5 -73.5q106 0 174 73.5t68 192.5 t-67.5 192.5t-174.5 73.5q-109 0 -177 -73.5t-68 -192.5z" />
<glyph unicode="&#xe3;" horiz-adv-x="1249" d="M72 512q0 225 131 378.5t342 153.5q190 0 307 -155v135h274v-1024h-274v133q-117 -154 -307 -153q-211 0 -342 153.5t-131 378.5zM258 1151q0 123 51 196.5t133 73.5q76 0 170.5 -54t112.5 -54q68 0 68 108h145q0 -123 -51 -196.5t-133 -73.5q-76 0 -170.5 54.5 t-112.5 54.5q-68 0 -68 -109h-145zM365 512q0 -119 68.5 -192.5t176.5 -73.5q106 0 174 73.5t68 192.5t-67.5 192.5t-174.5 73.5q-109 0 -177 -73.5t-68 -192.5z" />
<glyph unicode="&#xe4;" horiz-adv-x="1249" d="M72 512q0 225 131 378.5t342 153.5q190 0 307 -155v135h274v-1024h-274v133q-117 -154 -307 -153q-211 0 -342 153.5t-131 378.5zM266 1296.5q0 53.5 39 92t92.5 38.5t92 -38.5t38.5 -92t-38.5 -92.5t-92 -39t-92.5 39t-39 92.5zM365 512q0 -119 68.5 -192.5t176.5 -73.5 q106 0 174 73.5t68 192.5t-67.5 192.5t-174.5 73.5q-109 0 -177 -73.5t-68 -192.5zM659 1296.5q0 53.5 39 92t92.5 38.5t92.5 -38.5t39 -92t-39 -92.5t-92.5 -39t-92.5 39t-39 92.5z" />
<glyph unicode="&#xe5;" horiz-adv-x="1249" d="M72 512q0 225 131 378.5t342 153.5q190 0 307 -155v135h274v-1024h-274v133q-117 -154 -307 -153q-211 0 -342 153.5t-131 378.5zM365 512q0 -119 68.5 -192.5t176.5 -73.5q106 0 174 73.5t68 192.5t-67.5 192.5t-174.5 73.5q-109 0 -177 -73.5t-68 -192.5zM377 1354 q0 92 65.5 157.5t157.5 65.5t157.5 -65.5t65.5 -157.5t-65.5 -158t-157.5 -66t-157.5 66t-65.5 158zM506 1354q0 -41 27.5 -72t66.5 -31t67.5 31t28.5 72t-28.5 71.5t-67.5 30.5t-66.5 -30.5t-27.5 -71.5z" />
<glyph unicode="&#xe6;" horiz-adv-x="1875" d="M72 297q0 125 80.5 209t196.5 117.5t257 33.5q86 0 139 -10q-25 162 -213 162q-68 0 -136 -16.5t-103 -32.5l-35 -17l-90 193q16 12 46 30.5t123 48t185 29.5q266 0 387 -206q70 96 174.5 151t225.5 55q205 0 350 -154.5t145 -369.5l-8 -102h-737q29 -100 111.5 -150.5 t193.5 -50.5q141 0 256 70l96 -209q-158 -98 -373 -98q-145 0 -261.5 50t-172.5 146q-162 -197 -442 -196q-195 0 -295 87t-100 230zM340 328q0 -55 43 -85t104 -30q139 0 209 64.5t70 130.5v51q-47 8 -160 8q-109 0 -187.5 -36.5t-78.5 -102.5zM1055 616h481 q-16 88 -84 139.5t-160 51.5q-80 0 -145 -51.5t-92 -139.5z" />
<glyph unicode="&#xe7;" horiz-adv-x="1034" d="M72 512q0 221 160.5 376.5t385.5 155.5q211 0 365 -124l-168 -199q-66 57 -190 57q-117 0 -196 -75.5t-79 -190.5q0 -113 78 -189.5t205 -76.5q141 0 221 69l150 -211q-133 -104 -322 -120l-41 -74q37 6 41 6q82 0 129 -45t47 -109q0 -84 -72.5 -147.5t-201.5 -63.5 q-146 1 -232 62l64 106q90 -47 164 -47q49 0 80.5 28t31.5 60q0 25 -18.5 38.5t-44.5 13.5q-55 0 -78 -56l-135 43l110 189q-195 31 -324.5 178t-129.5 346z" />
<glyph unicode="&#xe8;" horiz-adv-x="1173" d="M72 510q0 223 153.5 378.5t380.5 155.5q205 0 350.5 -154.5t145.5 -369.5l-8 -102h-738q51 -197 281 -197q160 0 281 70l102 -207q-180 -104 -387 -104q-236 0 -398.5 140t-162.5 390zM268 1487h275l192 -324h-239zM352 616h482q-16 88 -84 139.5t-160 51.5 q-80 0 -145.5 -51.5t-92.5 -139.5z" />
<glyph unicode="&#xe9;" horiz-adv-x="1173" d="M72 510q0 223 153.5 378.5t380.5 155.5q205 0 350.5 -154.5t145.5 -369.5l-8 -102h-738q51 -197 281 -197q160 0 281 70l102 -207q-180 -104 -387 -104q-236 0 -398.5 140t-162.5 390zM352 616h482q-16 88 -84 139.5t-160 51.5q-80 0 -145.5 -51.5t-92.5 -139.5z M477 1163l193 324h274l-227 -324h-240z" />
<glyph unicode="&#xea;" horiz-adv-x="1173" d="M72 510q0 223 153.5 378.5t380.5 155.5q205 0 350.5 -154.5t145.5 -369.5l-8 -102h-738q51 -197 281 -197q160 0 281 70l102 -207q-180 -104 -387 -104q-236 0 -398.5 140t-162.5 390zM211 1163l229 324h273l229 -324h-203l-164 191l-161 -191h-203zM352 616h482 q-16 88 -84 139.5t-160 51.5q-80 0 -145.5 -51.5t-92.5 -139.5z" />
<glyph unicode="&#xeb;" horiz-adv-x="1173" d="M72 510q0 223 153.5 378.5t380.5 155.5q205 0 350.5 -154.5t145.5 -369.5l-8 -102h-738q51 -197 281 -197q160 0 281 70l102 -207q-180 -104 -387 -104q-236 0 -398.5 140t-162.5 390zM256 1296.5q0 53.5 39 92t92 38.5t92 -38.5t39 -92t-39 -92.5t-92 -39t-92 39 t-39 92.5zM352 616h482q-16 88 -84 139.5t-160 51.5q-80 0 -145.5 -51.5t-92.5 -139.5zM649 1296.5q0 53.5 39 92t92.5 38.5t92 -38.5t38.5 -92t-38.5 -92.5t-92 -39t-92.5 39t-39 92.5z" />
<glyph unicode="&#xec;" horiz-adv-x="520" d="M-49 1487h274l193 -324h-240zM123 0v1024h274v-1024h-274z" />
<glyph unicode="&#xed;" horiz-adv-x="520" d="M102 1163l193 324h274l-227 -324h-240zM123 0v1024h274v-1024h-274z" />
<glyph unicode="&#xee;" horiz-adv-x="520" d="M-104 1163l229 324h272l230 -324h-203l-164 191l-162 -191h-202zM123 0v1024h274v-1024h-274z" />
<glyph unicode="&#xef;" horiz-adv-x="520" d="M-68 1296.5q0 53.5 39 92t92.5 38.5t92.5 -38.5t39 -92t-39 -92.5t-92.5 -39t-92.5 39t-39 92.5zM123 0v1024h274v-1024h-274zM326 1296.5q0 53.5 38.5 92t92 38.5t92.5 -38.5t39 -92t-39 -92.5t-92.5 -39t-92 39t-38.5 92.5z" />
<glyph unicode="&#xf0;" horiz-adv-x="1236" d="M72 512q0 201 156.5 343t377.5 142q68 0 142 -24q-86 82 -213 153l-207 -86l-45 97l114 49q-57 20 -135 43l123 139q123 -27 248 -84l203 86l45 -96l-125 -55q410 -262 409 -678q0 -229 -152.5 -395t-394.5 -166q-227 0 -386.5 155.5t-159.5 376.5zM350 512 q0 -113 79 -190.5t189.5 -77.5t189.5 77.5t79 190.5q0 111 -79 188.5t-189.5 77.5t-189.5 -77.5t-79 -188.5z" />
<glyph unicode="&#xf1;" horiz-adv-x="1183" d="M123 0v1024h274v-133q117 154 320 153q205 0 284.5 -123.5t79.5 -357.5v-563h-276v532q0 133 -33 189.5t-143 56.5q-104 0 -168 -73.5t-64 -192.5v-512h-274zM244 1151q0 123 51 196.5t133 73.5q76 0 170 -54t113 -54q68 0 67 108h146q0 -123 -51.5 -196.5t-133.5 -73.5 q-76 0 -170 54.5t-112 54.5q-68 0 -68 -109h-145z" />
<glyph unicode="&#xf2;" horiz-adv-x="1236" d="M72 512q0 221 160.5 376.5t386 155.5t386 -155.5t160.5 -376.5t-160.5 -376.5t-386 -155.5t-386 155.5t-160.5 376.5zM317 1487h275l192 -324h-239zM350 512q0 -111 79 -188.5t189.5 -77.5t189.5 77.5t79 188.5t-79 188.5t-189.5 77.5t-189.5 -77.5t-79 -188.5z" />
<glyph unicode="&#xf3;" horiz-adv-x="1236" d="M72 512q0 221 160.5 376.5t386 155.5t386 -155.5t160.5 -376.5t-160.5 -376.5t-386 -155.5t-386 155.5t-160.5 376.5zM350 512q0 -111 79 -188.5t189.5 -77.5t189.5 77.5t79 188.5t-79 188.5t-189.5 77.5t-189.5 -77.5t-79 -188.5zM440 1163l193 324h274l-227 -324h-240z " />
<glyph unicode="&#xf4;" horiz-adv-x="1236" d="M72 512q0 221 160.5 376.5t386 155.5t386 -155.5t160.5 -376.5t-160.5 -376.5t-386 -155.5t-386 155.5t-160.5 376.5zM256 1163l229 324h273l229 -324h-203l-163 191l-162 -191h-203zM350 512q0 -111 79 -188.5t189.5 -77.5t189.5 77.5t79 188.5t-79 188.5t-189.5 77.5 t-189.5 -77.5t-79 -188.5z" />
<glyph unicode="&#xf5;" horiz-adv-x="1236" d="M72 512q0 221 160.5 376.5t386 155.5t386 -155.5t160.5 -376.5t-160.5 -376.5t-386 -155.5t-386 155.5t-160.5 376.5zM279 1151q0 123 51 196.5t133 73.5q76 0 170 -54t112 -54q68 0 68 108h145q0 -123 -51 -196.5t-133 -73.5q-76 0 -170 54.5t-112 54.5q-68 0 -68 -109 h-145zM350 512q0 -111 79 -188.5t189.5 -77.5t189.5 77.5t79 188.5t-79 188.5t-189.5 77.5t-189.5 -77.5t-79 -188.5z" />
<glyph unicode="&#xf6;" horiz-adv-x="1236" d="M72 512q0 221 160.5 376.5t386 155.5t386 -155.5t160.5 -376.5t-160.5 -376.5t-386 -155.5t-386 155.5t-160.5 376.5zM291 1296.5q0 53.5 39 92t92 38.5t92 -38.5t39 -92t-39 -92.5t-92 -39t-92 39t-39 92.5zM350 512q0 -111 79 -188.5t189.5 -77.5t189.5 77.5t79 188.5 t-79 188.5t-189.5 77.5t-189.5 -77.5t-79 -188.5zM684 1296.5q0 53.5 39 92t92 38.5t92 -38.5t39 -92t-39 -92.5t-92 -39t-92 39t-39 92.5z" />
<glyph unicode="&#xf7;" d="M115 465v221h958v-221h-958zM432 176.5q0 67.5 47 115.5t115 48t116 -48t48 -115.5t-48 -115t-116 -47.5t-115 47.5t-47 115zM432 976.5q0 67.5 47 116t115 48.5t116 -48.5t48 -116t-48 -114.5t-116 -47t-115 47t-47 114.5z" />
<glyph unicode="&#xf8;" horiz-adv-x="1236" d="M72 512q0 221 160.5 376.5t385.5 155.5q113 0 216 -45l98 164l106 -63l-96 -160q102 -74 162.5 -186.5t60.5 -241.5q0 -221 -160.5 -376.5t-386.5 -155.5q-111 0 -225 47l-92 -156l-106 63l92 154q-215 162 -215 424zM350 512q0 -111 78 -188l266 444q-41 10 -76 10 q-111 0 -189.5 -77.5t-78.5 -188.5zM532 258q41 -12 86 -12q111 0 190 77.5t79 188.5q0 115 -86 195z" />
<glyph unicode="&#xf9;" horiz-adv-x="1183" d="M102 444v580h277v-532q0 -125 41 -185.5t145 -60.5q221 0 221 278v500h275v-1024h-275v133q-117 -154 -307 -153q-88 0 -155.5 27.5t-108.5 71.5t-66.5 106.5t-36 124.5t-10.5 134zM291 1487h274l193 -324h-240z" />
<glyph unicode="&#xfa;" horiz-adv-x="1183" d="M102 444v580h277v-532q0 -125 41 -185.5t145 -60.5q221 0 221 278v500h275v-1024h-275v133q-117 -154 -307 -153q-88 0 -155.5 27.5t-108.5 71.5t-66.5 106.5t-36 124.5t-10.5 134zM399 1163l193 324h274l-227 -324h-240z" />
<glyph unicode="&#xfb;" horiz-adv-x="1183" d="M102 444v580h277v-532q0 -125 41 -185.5t145 -60.5q221 0 221 278v500h275v-1024h-275v133q-117 -154 -307 -153q-88 0 -155.5 27.5t-108.5 71.5t-66.5 106.5t-36 124.5t-10.5 134zM215 1163l229 324h273l229 -324h-203l-163 191l-162 -191h-203z" />
<glyph unicode="&#xfc;" horiz-adv-x="1183" d="M102 444v580h277v-532q0 -125 41 -185.5t145 -60.5q221 0 221 278v500h275v-1024h-275v133q-117 -154 -307 -153q-88 0 -155.5 27.5t-108.5 71.5t-66.5 106.5t-36 124.5t-10.5 134zM254 1296.5q0 53.5 39 92t92 38.5t92 -38.5t39 -92t-39 -92.5t-92 -39t-92 39t-39 92.5z M647 1296.5q0 53.5 39 92t92 38.5t92 -38.5t39 -92t-39 -92.5t-92 -39t-92 39t-39 92.5z" />
<glyph unicode="&#xfd;" horiz-adv-x="1112" d="M10 1024h281l207 -479l63 -164q45 127 64 174l184 469h278l-460 -1067q-113 -258 -424 -258v258q90 0 137 31.5t76 95.5l18 39zM426 1163l192 324h275l-227 -324h-240z" />
<glyph unicode="&#xfe;" horiz-adv-x="1234" d="M123 -281v1608h274v-438q111 156 293 155q211 0 342 -153.5t131 -378.5t-129 -378.5t-329 -153.5q-190 0 -308 153v-414h-274zM397 512q0 -119 67.5 -192.5t174.5 -73.5q109 0 177.5 73.5t68.5 192.5t-68.5 192.5t-177.5 73.5q-106 0 -174 -73.5t-68 -192.5z" />
<glyph unicode="&#xff;" horiz-adv-x="1112" d="M10 1024h281l207 -479l63 -164q45 127 64 174l184 469h278l-460 -1067q-113 -258 -424 -258v258q90 0 137 31.5t76 95.5l18 39zM238 1296.5q0 53.5 38.5 92t92 38.5t92.5 -38.5t39 -92t-39 -92.5t-92.5 -39t-92 39t-38.5 92.5zM631 1296.5q0 53.5 39 92t92 38.5t92 -38.5 t39 -92t-39 -92.5t-92 -39t-92 39t-39 92.5z" />
<glyph unicode="&#x152;" horiz-adv-x="2197" d="M82 664q0 287 199.5 485.5t502.5 198.5q188 0 349 -113v92h974v-246h-686v-270h645v-244h-645v-321h715v-246h-1003v90q-154 -113 -349 -113q-303 0 -502.5 199t-199.5 488zM381 664q0 -176 122 -301t304 -125q217 0 326 143v557q-111 150 -326 149q-182 0 -304 -124.5 t-122 -298.5z" />
<glyph unicode="&#x153;" horiz-adv-x="1972" d="M72 512q0 221 160.5 376.5t385.5 155.5q117 0 220.5 -52t175.5 -142q152 195 391 194q205 0 350.5 -154.5t145.5 -369.5l-9 -102h-737q57 -205 285 -205q143 0 272 80l105 -207q-156 -106 -371 -106q-137 0 -254 48t-180 142q-158 -190 -394 -190q-225 0 -385.5 155.5 t-160.5 376.5zM350 512q0 -111 79 -188.5t189.5 -77.5t189.5 77.5t79 188.5t-79 188.5t-189.5 77.5t-189.5 -77.5t-79 -188.5zM1151 616h481q-16 88 -83.5 139.5t-159.5 51.5q-80 0 -145.5 -51.5t-92.5 -139.5z" />
<glyph unicode="&#x178;" horiz-adv-x="1323" d="M20 1327h330l152 -221l162 -258l163 258l146 221h330l-496 -723v-604h-287v600zM336 1534q0 53 39 92t92 39t92 -39t39 -92t-39 -92t-92 -39t-92 39t-39 92zM729 1534q0 53 39 92t92 39t92 -39t39 -92t-39 -92t-92 -39t-92 39t-39 92z" />
<glyph unicode="&#x2c6;" horiz-adv-x="819" d="M43 1163l229 324h273l229 -324h-203l-163 191l-162 -191h-203z" />
<glyph unicode="&#x2dc;" horiz-adv-x="819" d="M68 1151q0 123 51 196.5t133 73.5q76 0 170 -54t113 -54q68 0 67 108h146q0 -123 -51.5 -196.5t-133.5 -73.5q-76 0 -170 54.5t-112 54.5q-68 0 -68 -109h-145z" />
<glyph unicode="&#x2000;" horiz-adv-x="909" />
<glyph unicode="&#x2001;" horiz-adv-x="1819" />
<glyph unicode="&#x2002;" horiz-adv-x="909" />
<glyph unicode="&#x2003;" horiz-adv-x="1819" />
<glyph unicode="&#x2004;" horiz-adv-x="606" />
<glyph unicode="&#x2005;" horiz-adv-x="454" />
<glyph unicode="&#x2006;" horiz-adv-x="303" />
<glyph unicode="&#x2007;" horiz-adv-x="303" />
<glyph unicode="&#x2008;" horiz-adv-x="227" />
<glyph unicode="&#x2009;" horiz-adv-x="363" />
<glyph unicode="&#x200a;" horiz-adv-x="101" />
<glyph unicode="&#x2010;" horiz-adv-x="985" d="M61 393v221h863v-221h-863z" />
<glyph unicode="&#x2011;" horiz-adv-x="985" d="M61 393v221h863v-221h-863z" />
<glyph unicode="&#x2012;" horiz-adv-x="985" d="M61 393v221h863v-221h-863z" />
<glyph unicode="&#x2013;" horiz-adv-x="1269" d="M41 393v221h1188v-221h-1188z" />
<glyph unicode="&#x2014;" horiz-adv-x="1474" d="M41 393v221h1393v-221h-1393z" />
<glyph unicode="&#x2018;" horiz-adv-x="573" d="M102 770l195 557h174l-121 -557h-248z" />
<glyph unicode="&#x2019;" horiz-adv-x="573" d="M102 770l121 557h248l-195 -557h-174z" />
<glyph unicode="&#x201a;" horiz-adv-x="573" d="M102 -281l121 557h248l-195 -557h-174z" />
<glyph unicode="&#x201c;" horiz-adv-x="983" d="M102 770l195 557h174l-121 -557h-248zM512 770l195 557h174l-121 -557h-248z" />
<glyph unicode="&#x201d;" horiz-adv-x="983" d="M102 770l121 557h248l-195 -557h-174zM512 770l121 557h248l-195 -557h-174z" />
<glyph unicode="&#x201e;" horiz-adv-x="983" d="M102 -281l121 557h248l-195 -557h-174zM512 -281l121 557h248l-195 -557h-174z" />
<glyph unicode="&#x2022;" horiz-adv-x="825" d="M102 598q0 129 91.5 219t220.5 90t219 -90t90 -219t-90 -220t-219 -91t-220.5 91t-91.5 220z" />
<glyph unicode="&#x2026;" horiz-adv-x="1597" d="M123 141.5q0 67.5 48 115.5t114 48q68 0 116 -48t48 -115.5t-48.5 -114.5t-116 -47t-114.5 47t-47 114.5zM635 141.5q0 67.5 48 115.5t114 48q68 0 116 -48t48 -115.5t-48.5 -114.5t-116 -47t-114.5 47t-47 114.5zM1147 141.5q0 67.5 48 115.5t114 48q68 0 116 -48 t48 -115.5t-48.5 -114.5t-116 -47t-114.5 47t-47 114.5z" />
<glyph unicode="&#x202f;" horiz-adv-x="363" />
<glyph unicode="&#x2039;" horiz-adv-x="600" d="M55 444v109l363 358l121 -120l-248 -291l248 -293l-121 -121z" />
<glyph unicode="&#x203a;" horiz-adv-x="600" d="M55 207l248 293l-248 291l121 120l363 -358v-109l-363 -358z" />
<glyph unicode="&#x205f;" horiz-adv-x="454" />
<glyph unicode="&#x20ac;" d="M80 449l45 167h94q-2 35 -2 60q0 29 2 47h-119l45 168h99q57 211 197.5 334t336.5 123q244 0 398 -185l-160 -166q-84 104 -219 105q-90 0 -159 -57.5t-106 -153.5h478l-45 -168h-467q-4 -25 -4 -47l4 -60h444l-45 -167h-369q35 -106 103.5 -166t161.5 -60q143 0 239 133 l178 -149q-160 -229 -432 -230q-197 0 -341 128t-195 344h-162z" />
<glyph unicode="&#x2122;" horiz-adv-x="1683" d="M43 1178v149h543v-149h-189v-459h-166v459h-188zM657 719v608h121l191 -190l188 190h123v-608h-168v338l-143 -142l-146 142v-338h-166z" />
<glyph unicode="&#x25fc;" horiz-adv-x="1024" d="M0 0v1024h1024v-1024h-1024z" />
</font>
</defs>
</svg>
